<?xml version="1.0" encoding="utf-8"?>
<!-- Generator: Adobe Illustrator 17.1.0, SVG Export Plug-In . SVG Version: 6.00 Build 0)  -->
<!DOCTYPE svg PUBLIC "-//W3C//DTD SVG 1.1//EN" "http://www.w3.org/Graphics/SVG/1.1/DTD/svg11.dtd">
<svg version="1.1" id="Layer_1" xmlns="http://www.w3.org/2000/svg" xmlns:xlink="http://www.w3.org/1999/xlink" x="0px" y="0px"
	 viewBox="0 0 15.7 14" enable-background="new 0 0 15.7 14" xml:space="preserve">
<g>
	<g>
		<path fill="#FFFFFF" d="M13.7,5.4H2c-1.1,0-2-0.9-2-2V2c0-1.1,0.9-2,2-2h11.7c1.1,0,2,0.9,2,2v1.5C15.7,4.5,14.8,5.4,13.7,5.4z
			 M2,1C1.4,1,1,1.4,1,2v1.5c0,0.5,0.4,1,1,1h11.7c0.5,0,1-0.4,1-1V2c0-0.5-0.4-1-1-1H2z"/>
	</g>
	<g>
		<path fill="#FFFFFF" d="M12.6,14H3.1c-1.2,0-2.2-1-2.2-2.2V4.4h13.9v7.4C14.8,13,13.8,14,12.6,14z M1.9,5.4v6.4
			c0,0.7,0.5,1.2,1.2,1.2h9.4c0.7,0,1.2-0.5,1.2-1.2V5.4H1.9z"/>
	</g>
	<g>
		<path fill="#FFFFFF" d="M10.2,9.3H5.4c-0.5,0-1-0.4-1-1V7.8c0-0.5,0.4-1,1-1h4.8c0.5,0,1,0.4,1,1v0.5C11.2,8.8,10.7,9.3,10.2,9.3z
			 M10.2,7.8l-4.8,0l0,0.5l4.8,0V7.8z"/>
	</g>
</g>
</svg>
