<?xml version="1.0" encoding="utf-8"?>
<!-- Generator: Adobe Illustrator 17.1.0, SVG Export Plug-In . SVG Version: 6.00 Build 0)  -->
<!DOCTYPE svg PUBLIC "-//W3C//DTD SVG 1.1//EN" "http://www.w3.org/Graphics/SVG/1.1/DTD/svg11.dtd">
<svg version="1.1" id="Layer_1" xmlns="http://www.w3.org/2000/svg" xmlns:xlink="http://www.w3.org/1999/xlink" x="0px" y="0px"
	 viewBox="0 0 10 10" enable-background="new 0 0 10 10" xml:space="preserve">
<path opacity="0.8" fill="#FF3F3C" d="M9.2,7.8L6.4,5l2.8-2.8c0.4-0.4,0.4-1,0-1.4s-1-0.4-1.4,0L5,3.6L2.2,0.8c-0.4-0.4-1-0.4-1.4,0
	s-0.4,1,0,1.4L3.6,5L0.8,7.8c-0.4,0.4-0.4,1,0,1.4C1,9.4,1.2,9.5,1.5,9.5S2,9.4,2.2,9.2L5,6.4l2.8,2.8C8,9.4,8.2,9.5,8.5,9.5
	S9,9.4,9.2,9.2C9.6,8.8,9.6,8.2,9.2,7.8z"/>
</svg>
