<?xml version="1.0" encoding="utf-8"?>
<!-- Generator: Adobe Illustrator 17.1.0, SVG Export Plug-In . SVG Version: 6.00 Build 0)  -->
<!DOCTYPE svg PUBLIC "-//W3C//DTD SVG 1.1//EN" "http://www.w3.org/Graphics/SVG/1.1/DTD/svg11.dtd">
<svg version="1.1" id="Layer_1" xmlns="http://www.w3.org/2000/svg" xmlns:xlink="http://www.w3.org/1999/xlink" x="0px" y="0px"
	 viewBox="0 0 15.7 14" enable-background="new 0 0 15.7 14" xml:space="preserve">
<g>
	<path fill="none" stroke="#B3B3B3" stroke-miterlimit="10" d="M13.7,4.9L2,4.9c-0.8,0-1.5-0.7-1.5-1.5l0-1.5c0-0.8,0.7-1.5,1.5-1.5
		h11.7c0.8,0,1.5,0.7,1.5,1.5v1.5C15.2,4.2,14.5,4.9,13.7,4.9z"/>
	<path fill="none" stroke="#B3B3B3" stroke-miterlimit="10" d="M14.3,4.9H1.4v6.9c0,0.9,0.8,1.7,1.7,1.7h9.4c0.9,0,1.7-0.8,1.7-1.7
		V4.9z"/>
	<path fill="none" stroke="#B3B3B3" stroke-miterlimit="10" d="M10.2,8.8H5.4c-0.3,0-0.5-0.2-0.5-0.5V7.8c0-0.3,0.2-0.5,0.5-0.5
		l4.8,0c0.3,0,0.5,0.2,0.5,0.5v0.5C10.7,8.6,10.5,8.8,10.2,8.8z"/>
</g>
</svg>
