<?xml version="1.0" encoding="utf-8"?>
<!-- Generator: Adobe Illustrator 17.1.0, SVG Export Plug-In . SVG Version: 6.00 Build 0)  -->
<!DOCTYPE svg PUBLIC "-//W3C//DTD SVG 1.1//EN" "http://www.w3.org/Graphics/SVG/1.1/DTD/svg11.dtd">
<svg version="1.1" id="Layer_1" xmlns="http://www.w3.org/2000/svg" xmlns:xlink="http://www.w3.org/1999/xlink" x="0px" y="0px"
	 viewBox="0 0 10 10" enable-background="new 0 0 10 10" xml:space="preserve">
<path opacity="0.8" fill="#19286E" d="M8.4,0.4C7.8,0.9,7.2,1.4,6.5,2c0.5,0.5,1,0.9,1.5,1.4c0.5-0.6,1-1.2,1.5-1.9
	c0.1,0.1,0.2,0.1,0.2,0.2c0.3,0.7,0.3,1.3,0,2C9.3,5.1,8,5.7,6.5,5.6C6.3,5.5,6,5.7,5.8,5.9c-1,1.1-2,2.3-3,3.4
	c-0.7,0.8-1.7,0.9-2.4,0.3c-0.7-0.7-0.6-1.7,0.3-2.4c1.1-1,2.3-2,3.5-3c0.3-0.2,0.4-0.5,0.3-0.8C4.2,2.1,4.8,1.2,5.7,0.5
	c0.8-0.6,1.6-0.6,2.5-0.3C8.3,0.3,8.3,0.4,8.4,0.4z M0.9,8.2c0,0.1,0,0.2,0,0.3C1.2,8.7,1.4,9,1.7,9c0.2,0,0.6-0.4,0.7-0.6
	C2.4,8,2.1,7.6,1.7,7.7C1.4,7.7,1.2,8,0.9,8.2z"/>
</svg>
