<?xml version="1.0" encoding="utf-8"?>
<!-- Generator: Adobe Illustrator 17.1.0, SVG Export Plug-In . SVG Version: 6.00 Build 0)  -->
<!DOCTYPE svg PUBLIC "-//W3C//DTD SVG 1.1//EN" "http://www.w3.org/Graphics/SVG/1.1/DTD/svg11.dtd">
<svg version="1.1" id="Layer_1" xmlns="http://www.w3.org/2000/svg" xmlns:xlink="http://www.w3.org/1999/xlink" x="0px" y="0px"
	 viewBox="0 0 10 10" enable-background="new 0 0 10 10" xml:space="preserve">
<g opacity="0.4">
	<path fill="#19286E" d="M1.2,1.5c0,2.4,0,4.9,0,7.3c2.4,0,4.7,0,7.1,0c0-1.1,0-2.2,0-3.3c0-0.2,0-0.4,0-0.6c0-0.4,0.2-0.6,0.6-0.6
		c0.4,0,0.6,0.2,0.6,0.6c0,1.1,0,2.1,0,3.2c0,0.4,0,0.8,0,1.2c0,0.6-0.3,0.8-0.8,0.8c-0.7,0-1.4,0-2.1,0c-1.8,0-3.7,0-5.5,0
		c-0.8,0-1-0.2-1-1c0-2.5,0-5.1,0-7.6c0-0.8,0.2-1,1-1c1.3,0,2.7,0,4,0c0.3,0,0.6,0,0.7,0.4c0.1,0.4-0.1,0.8-0.6,0.8c-1,0-2,0-3,0
		C1.8,1.5,1.5,1.5,1.2,1.5z"/>
	<path fill="#19286E" d="M7.1,1.4c0.5,0.5,1,1,1.5,1.5C7.7,3.8,6.7,4.8,5.8,5.7c-0.5-0.5-1-1-1.5-1.5C5.2,3.3,6.1,2.3,7.1,1.4z"/>
	<path fill="#19286E" d="M7.5,0.9c0.2-0.2,0.4-0.5,0.7-0.7c0.3-0.2,0.5-0.2,0.8,0c0.3,0.3,0.6,0.6,0.9,0.9c0.2,0.2,0.2,0.4,0,0.7
		C9.6,2,9.4,2.2,9.1,2.5C8.6,1.9,8.1,1.4,7.5,0.9z"/>
	<path fill="#19286E" d="M3.8,4.7c0.5,0.5,1,1,1.5,1.5C4.7,6.3,4.1,6.4,3.5,6.5C3.6,5.9,3.7,5.3,3.8,4.7z"/>
</g>
</svg>
