<?xml version="1.0" encoding="utf-8"?>
<!-- Generator: Adobe Illustrator 17.1.0, SVG Export Plug-In . SVG Version: 6.00 Build 0)  -->
<!DOCTYPE svg PUBLIC "-//W3C//DTD SVG 1.1//EN" "http://www.w3.org/Graphics/SVG/1.1/DTD/svg11.dtd">
<svg version="1.1" id="Layer_1" xmlns="http://www.w3.org/2000/svg" xmlns:xlink="http://www.w3.org/1999/xlink" x="0px" y="0px"
	 viewBox="0 0 10 10" enable-background="new 0 0 10 10" xml:space="preserve">
<path opacity="0.8" fill="#dcdcdc" d="M9.4,4L5.8,0.4C5.4,0,4.7,0,4.3,0.4L0.7,4C0.3,4.4,0.3,5,0.7,5.4c0.2,0.2,0.5,0.3,0.7,0.3
	S2,5.6,2.2,5.4L4,3.6V9c0,0.6,0.4,1,1,1s1-0.5,1-1V3.6l1.9,1.8c0.2,0.2,0.5,0.3,0.7,0.3s0.5-0.1,0.7-0.3C9.8,5,9.8,4.4,9.4,4z"/>
</svg>
