<?xml version="1.0" encoding="utf-8"?>
<!-- Generator: Adobe Illustrator 18.0.0, SVG Export Plug-In . SVG Version: 6.00 Build 0)  -->
<!DOCTYPE svg PUBLIC "-//W3C//DTD SVG 1.1//EN" "http://www.w3.org/Graphics/SVG/1.1/DTD/svg11.dtd">
<svg version="1.1" id="Layer_1" xmlns="http://www.w3.org/2000/svg" xmlns:xlink="http://www.w3.org/1999/xlink" x="0px" y="0px"
	 viewBox="0 0 16 16" enable-background="new 0 0 16 16" xml:space="preserve">
<path fill="#333333" d="M12.4,10.4c-0.7,0-1.4,0.3-1.9,0.8L6.3,8.8C6.4,8.6,6.4,8.3,6.4,8c0-0.2,0-0.4-0.1-0.6l4.2-2.5
	c0.5,0.4,1.1,0.7,1.9,0.7c1.5,0,2.8-1.2,2.8-2.8S13.9,0,12.4,0c-1.5,0-2.8,1.2-2.8,2.8c0,0.2,0,0.4,0.1,0.6L5.5,5.9
	C5,5.5,4.3,5.2,3.6,5.2C2.1,5.2,0.8,6.5,0.8,8s1.2,2.8,2.8,2.8c0.6,0,1.2-0.2,1.7-0.6l4.3,2.4c0,0.2-0.1,0.4-0.1,0.6
	c0,1.5,1.2,2.8,2.8,2.8c1.5,0,2.8-1.2,2.8-2.8S13.9,10.4,12.4,10.4z"/>
</svg>
