<svg id="Layer_1" data-name="Layer 1" xmlns="http://www.w3.org/2000/svg" viewBox="0 0 242.67 30"><defs><style>.cls-1{fill:#04346e;}.cls-2{fill:#078dd0;}.cls-3{fill:none;}</style></defs><title>logo</title><path id="Fill-32" class="cls-1" d="M22.3,10.84H19.39a3,3,0,0,1-3-2.84V4.81A1.82,1.82,0,0,0,14.59,3H10.33A1.82,1.82,0,0,0,8.51,4.81V9a1.82,1.82,0,0,0,1.82,1.81h2.52c2.72.1,3.26,1.6,3.37,2.95v3.08A1.82,1.82,0,0,0,18,18.68H22.3a1.82,1.82,0,0,0,1.82-1.81V12.65a1.82,1.82,0,0,0-1.82-1.81"/><path id="Fill-34" class="cls-2" d="M14.42,19.16H11.51a3,3,0,0,1-3-2.84V13.13A1.82,1.82,0,0,0,6.7,11.32H2.45A1.82,1.82,0,0,0,.63,13.13v4.22a1.82,1.82,0,0,0,1.82,1.81H5c2.72.1,3.26,1.6,3.37,2.95v3.08A1.82,1.82,0,0,0,10.16,27h4.26a1.82,1.82,0,0,0,1.82-1.81V21a1.82,1.82,0,0,0-1.82-1.81"/><path id="Fill-2" class="cls-1" d="M100.95,8.19a.69.69,0,0,1,.18-.47,1.11,1.11,0,0,1,.46-.22l2.8-.83a.48.48,0,0,1,.4.06.52.52,0,0,1,.15.44v3.71h3.62c.2,0,.33,0,.37.12a.72.72,0,0,1,.07.35v2a1.06,1.06,0,0,1-.06.4c0,.08-.17.12-.39.12h-3.62v7.05a1.32,1.32,0,0,0,.4,1.11,7,7,0,0,0,3.74-.35c.29-.09.45,0,.47.28l.53,2.5a2.31,2.31,0,0,1,0,.32q0,.12-.3.23a12.7,12.7,0,0,1-4.44.73,4.73,4.73,0,0,1-3.4-1,4,4,0,0,1-1-3"/><path id="Fill-4" class="cls-1" d="M37.26,11.14A5.93,5.93,0,0,1,37.66,9a4.89,4.89,0,0,1,1.2-1.78,5.71,5.71,0,0,1,2-1.2,8.77,8.77,0,0,1,2.93-.44q.77,0,1.62.08a16.41,16.41,0,0,1,1.66.25,15.32,15.32,0,0,1,1.56.4A9.19,9.19,0,0,1,50,6.8q.33.17.37.32a1.18,1.18,0,0,1-.1.57L49.6,9.76c-.09.26-.18.41-.28.44a.85.85,0,0,1-.47,0q-1.3-.39-2.59-.64a12.78,12.78,0,0,0-2.42-.25,2.59,2.59,0,0,0-1.72.44,1.39,1.39,0,0,0-.5,1.08,1.36,1.36,0,0,0,.17.66,2,2,0,0,0,.54.59,5.71,5.71,0,0,0,1,.6q.62.3,1.53.66,1.41.55,2.6,1.12a9.28,9.28,0,0,1,2,1.29,5.34,5.34,0,0,1,1.33,1.69,5.16,5.16,0,0,1,.48,2.32,5.76,5.76,0,0,1-.53,2.55,5,5,0,0,1-1.47,1.8A6.46,6.46,0,0,1,47,25.17a11.38,11.38,0,0,1-2.95.36q-.89,0-1.85-.1a17.16,17.16,0,0,1-1.92-.3,14.47,14.47,0,0,1-1.87-.54,9.5,9.5,0,0,1-1.69-.8.53.53,0,0,1-.26-.3,1,1,0,0,1,.1-.53l.94-2.21c.09-.22.19-.35.3-.39a.69.69,0,0,1,.47.08l1.22.46q.66.24,1.37.42t1.44.3a8.69,8.69,0,0,0,1.45.12,5.31,5.31,0,0,0,1.44-.17,3,3,0,0,0,.94-.43,1.41,1.41,0,0,0,.5-.61,2,2,0,0,0,.14-.73,1.79,1.79,0,0,0-.15-.75,2.09,2.09,0,0,0-.5-.65,4,4,0,0,0-.94-.61q-.6-.29-1.48-.62-1.47-.55-2.66-1.13a10.36,10.36,0,0,1-2-1.29,5.12,5.12,0,0,1-1.31-1.58,4.32,4.32,0,0,1-.46-2"/><path id="Fill-6" class="cls-1" d="M60,22.16l.79,0q.51,0,1.1-.11V11.12a.65.65,0,0,1,.1-.41q.1-.11.48-.11h2.85q.58,0,.58.53V22.93a2.64,2.64,0,0,1-.37,1.49,2.1,2.1,0,0,1-1.34.77l-.83.11-1.06.1-1.12.06h-1a12.82,12.82,0,0,1-3.39-.39,5.11,5.11,0,0,1-2.27-1.24,4.93,4.93,0,0,1-1.26-2.23,12.37,12.37,0,0,1-.39-3.33V11.12a.65.65,0,0,1,.1-.41q.1-.11.48-.11h2.86q.58,0,.58.53v7.42a9.91,9.91,0,0,0,.11,1.59,2.61,2.61,0,0,0,.45,1.13,2,2,0,0,0,.95.68,4.74,4.74,0,0,0,1.59.22"/><path id="Fill-8" class="cls-1" d="M92.26,22.16l.79,0q.51,0,1.1-.11V11.12a.65.65,0,0,1,.1-.41q.1-.11.48-.11h2.85q.58,0,.58.53V22.93a2.64,2.64,0,0,1-.37,1.49,2.1,2.1,0,0,1-1.34.77l-.83.11-1.06.1-1.12.06h-1a12.83,12.83,0,0,1-3.39-.39,5.11,5.11,0,0,1-2.27-1.24,4.93,4.93,0,0,1-1.26-2.23,12.39,12.39,0,0,1-.39-3.33V11.12a.65.65,0,0,1,.1-.41q.1-.11.48-.11H88.6q.58,0,.58.53v7.42a9.91,9.91,0,0,0,.11,1.59,2.6,2.6,0,0,0,.44,1.13,2,2,0,0,0,.95.68,4.74,4.74,0,0,0,1.59.22"/><path id="Fill-10" class="cls-1" d="M120,18.92h-2.19A6.73,6.73,0,0,0,117,19a2.23,2.23,0,0,0-.82.26,1.74,1.74,0,0,0-.62.6,1.92,1.92,0,0,0-.25,1.05,1.45,1.45,0,0,0,.65,1.36,3.42,3.42,0,0,0,1.76.39h.44l.6-.06.65-.11a3.62,3.62,0,0,0,.61-.18Zm4,4.79a1.68,1.68,0,0,1-.1.61,1,1,0,0,1-.48.47,7.72,7.72,0,0,1-1.37.5,13.34,13.34,0,0,1-1.49.3q-.76.11-1.53.17c-.51,0-1,.06-1.46.06a11.27,11.27,0,0,1-3.11-.36,5.43,5.43,0,0,1-2-1,3.39,3.39,0,0,1-1-1.47,5.59,5.59,0,0,1,.06-3.79,4.24,4.24,0,0,1,1.08-1.56,5,5,0,0,1,1.81-1,8,8,0,0,1,2.59-.37h3v-.44A3.32,3.32,0,0,0,120,15a1.27,1.27,0,0,0-.35-.62,1.93,1.93,0,0,0-.73-.43,3.82,3.82,0,0,0-1.25-.17c-.28,0-.59,0-.94,0l-1.05.11q-.53.07-1,.17t-.89.21a.73.73,0,0,1-.5,0,.51.51,0,0,1-.19-.36l-.44-1.94a.62.62,0,0,1,0-.43.52.52,0,0,1,.29-.21,13.42,13.42,0,0,1,2.62-.64,19.5,19.5,0,0,1,2.73-.19,6.38,6.38,0,0,1,4.41,1.29,4.91,4.91,0,0,1,1.4,3.8Z"/><path id="Fill-12" class="cls-1" d="M131.21,24.52a.53.53,0,0,1-.11.4.83.83,0,0,1-.5.1h-2.82a.78.78,0,0,1-.44-.1.46.46,0,0,1-.14-.4V11a.46.46,0,0,1,.14-.4.78.78,0,0,1,.44-.1h2.82a.84.84,0,0,1,.5.1.53.53,0,0,1,.11.4Zm.36-17.82a2.15,2.15,0,0,1-.68,1.62,2.29,2.29,0,0,1-1.65.65,2.26,2.26,0,0,1-1.62-.65A2.15,2.15,0,0,1,127,6.7a2.26,2.26,0,0,1,.18-.91,2.19,2.19,0,0,1,.5-.72,2.48,2.48,0,0,1,.73-.48,2.21,2.21,0,0,1,.89-.18,2.31,2.31,0,0,1,.9.18,2.44,2.44,0,0,1,.75.48,2.19,2.19,0,0,1,.5.72,2.27,2.27,0,0,1,.18.91Z"/><path class="cls-3" d="M75.5,14.05c-.24,0-.58,0-1,.07a5.36,5.36,0,0,0-1.33.29v7.72a5.77,5.77,0,0,0,1.14.22c.41,0,.71.06,1,.06a3.17,3.17,0,0,0,2.42-.94,4.7,4.7,0,0,0,.89-3.25,5,5,0,0,0-.8-3.14A2.69,2.69,0,0,0,75.5,14.05Z"/><path class="cls-1" d="M82.36,15.16a6.62,6.62,0,0,0-1.13-2.39,5.43,5.43,0,0,0-2-1.59,6.6,6.6,0,0,0-2.89-.58,13.29,13.29,0,0,0-1.69.11,9.07,9.07,0,0,0-1.54.33h0V6a.45.45,0,0,0-.15-.4.85.85,0,0,0-.45-.1H69.44a1.14,1.14,0,0,0-.45.07q-.15.07-.15.46v6.42h0V23.9a1.23,1.23,0,0,0,.19.5.88.88,0,0,0,.47.33,11.13,11.13,0,0,0,2.88.83,19.86,19.86,0,0,0,3.08.25,8.25,8.25,0,0,0,3.33-.61A6.1,6.1,0,0,0,81,23.56a6.54,6.54,0,0,0,1.27-2.43,10.83,10.83,0,0,0,.4-3A11.76,11.76,0,0,0,82.36,15.16Zm-4.71,6.31a3.17,3.17,0,0,1-2.42.94c-.26,0-.56,0-1-.06a5.77,5.77,0,0,1-1.14-.22V14.41a5.36,5.36,0,0,1,1.33-.29c.46,0,.8-.07,1-.07a2.69,2.69,0,0,1,2.24,1,5,5,0,0,1,.8,3.14A4.7,4.7,0,0,1,77.65,21.46Z"/><path class="cls-1" d="M153,21.73a8,8,0,0,0,2.36-.32q1-.32,1.92-.65.39-.17.56-.07a.86.86,0,0,1,.31.4l.94,2a.89.89,0,0,1,.14.58.58.58,0,0,1-.31.33,9.44,9.44,0,0,1-3.15,1.24,17.17,17.17,0,0,1-3.26.32,10.27,10.27,0,0,1-3.93-.68,6.89,6.89,0,0,1-2.72-2,8.23,8.23,0,0,1-1.58-3.12,15.44,15.44,0,0,1-.51-4.15,12.42,12.42,0,0,1,.65-4.14,9.64,9.64,0,0,1,1.82-3.19A7.91,7.91,0,0,1,149,6.26a9,9,0,0,1,3.65-.72,16.12,16.12,0,0,1,2.77.23,8.49,8.49,0,0,1,2.67,1,.72.72,0,0,1,.36.33,1.13,1.13,0,0,1-.14.64l-.86,1.92a.87.87,0,0,1-.29.47.74.74,0,0,1-.54-.06,14,14,0,0,0-1.86-.54,9.23,9.23,0,0,0-1.91-.18,4.06,4.06,0,0,0-2,.49,4.41,4.41,0,0,0-1.47,1.33,6.18,6.18,0,0,0-.9,2,9.8,9.8,0,0,0-.31,2.51,12,12,0,0,0,.23,2.47,5.14,5.14,0,0,0,.81,1.92,3.83,3.83,0,0,0,1.48,1.25A5.2,5.2,0,0,0,153,21.73Z"/><path class="cls-1" d="M174.35,17.9a8.33,8.33,0,0,1-1.75,5.66,6.71,6.71,0,0,1-5.33,2q-3.61,0-5.28-2A8.52,8.52,0,0,1,160.33,18a10,10,0,0,1,.49-3.21,6.59,6.59,0,0,1,1.39-2.4,6.08,6.08,0,0,1,2.19-1.5,7.67,7.67,0,0,1,2.93-.53,6.62,6.62,0,0,1,5.26,2A8.17,8.17,0,0,1,174.35,17.9Zm-4.19.08a9.8,9.8,0,0,0-.14-1.72,3.92,3.92,0,0,0-.47-1.33,2.53,2.53,0,0,0-.86-.87,2.49,2.49,0,0,0-1.31-.32,2.39,2.39,0,0,0-2.18,1.13,5.66,5.66,0,0,0-.71,3,6.21,6.21,0,0,0,.65,3.17,2.32,2.32,0,0,0,2.15,1.08,2.42,2.42,0,0,0,2.21-1.21,4.09,4.09,0,0,0,.5-1.32A8.24,8.24,0,0,0,170.16,18Z"/><path class="cls-1" d="M182.32,13.65h-.79a6.81,6.81,0,0,0-1.1.12v11a.59.59,0,0,1-.1.4.76.76,0,0,1-.49.1H177a.79.79,0,0,1-.45-.1.47.47,0,0,1-.14-.4V12.84a2.83,2.83,0,0,1,.33-1.48,2,2,0,0,1,1.39-.76,7.35,7.35,0,0,1,.79-.1l1.1-.08,1.15-.07,1,0a12.72,12.72,0,0,1,3.35.39,5.62,5.62,0,0,1,2.34,1.24,5.12,5.12,0,0,1,1.39,2.22,10.67,10.67,0,0,1,.46,3.35v7.25a.6.6,0,0,1-.09.4.76.76,0,0,1-.48.1h-2.87a.77.77,0,0,1-.44-.1.47.47,0,0,1-.14-.4v-7.5a7.15,7.15,0,0,0-.15-1.58,2.71,2.71,0,0,0-.53-1.13,2.23,2.23,0,0,0-1-.68A5.07,5.07,0,0,0,182.32,13.65Z"/><path class="cls-1" d="M203.31,21.09a3.82,3.82,0,0,1-1.6,3.36,7.18,7.18,0,0,1-4.18,1.11,15.56,15.56,0,0,1-3-.32,8.92,8.92,0,0,1-2.82-1,.55.55,0,0,1-.26-.29.65.65,0,0,1,.1-.43l.81-1.92a.72.72,0,0,1,.29-.38.58.58,0,0,1,.46.07q.44.19,1,.37t1.15.32c.4.09.78.16,1.15.22a6.67,6.67,0,0,0,1,.08,2.17,2.17,0,0,0,1.4-.35,1.11,1.11,0,0,0,.4-.87,1.13,1.13,0,0,0-.57-.94,10.41,10.41,0,0,0-2-.92,17.42,17.42,0,0,1-2-.86,7.17,7.17,0,0,1-1.43-1,3.35,3.35,0,0,1-1.2-2.68A4.32,4.32,0,0,1,192.4,13a3.71,3.71,0,0,1,1-1.38,4.94,4.94,0,0,1,1.68-.93,7.4,7.4,0,0,1,2.4-.35,14,14,0,0,1,2.54.24,10.17,10.17,0,0,1,2.35.71q.31.14.33.29a1.13,1.13,0,0,1-.08.49l-.7,1.78c-.07.21-.16.32-.25.35a.79.79,0,0,1-.45-.07c-.68-.2-1.31-.36-1.89-.47a9.38,9.38,0,0,0-1.78-.16,1.45,1.45,0,0,0-1.08.35,1,1,0,0,0-.33.71,1.08,1.08,0,0,0,.52.92,8.49,8.49,0,0,0,1.79.83c.67.26,1.3.52,1.89.79a6.81,6.81,0,0,1,1.54.94,4.14,4.14,0,0,1,1,1.29A3.9,3.9,0,0,1,203.31,21.09Z"/><path class="cls-1" d="M218.57,17.9a8.33,8.33,0,0,1-1.75,5.66,6.71,6.71,0,0,1-5.33,2q-3.61,0-5.28-2A8.52,8.52,0,0,1,204.55,18a10,10,0,0,1,.49-3.21,6.59,6.59,0,0,1,1.39-2.4,6.08,6.08,0,0,1,2.19-1.5,7.67,7.67,0,0,1,2.93-.53,6.62,6.62,0,0,1,5.26,2A8.17,8.17,0,0,1,218.57,17.9Zm-4.19.08a9.8,9.8,0,0,0-.14-1.72,3.92,3.92,0,0,0-.47-1.33,2.53,2.53,0,0,0-.86-.87,2.49,2.49,0,0,0-1.31-.32,2.39,2.39,0,0,0-2.18,1.13,5.66,5.66,0,0,0-.71,3,6.21,6.21,0,0,0,.65,3.17,2.32,2.32,0,0,0,2.15,1.08,2.42,2.42,0,0,0,2.21-1.21,4.09,4.09,0,0,0,.5-1.32A8.24,8.24,0,0,0,214.38,18Z"/><path class="cls-1" d="M226.84,24.5c0,.2,0,.34,0,.4a1.24,1.24,0,0,1-.39.24,6.06,6.06,0,0,1-1.43.32,13,13,0,0,1-1.48.1,5.54,5.54,0,0,1-1.48-.18,2.47,2.47,0,0,1-1.09-.61,2.77,2.77,0,0,1-.68-1.18A6.45,6.45,0,0,1,220,21.7V5.49c0-.26,0-.41.15-.46a1.15,1.15,0,0,1,.45-.07h2.81a.86.86,0,0,1,.45.1.45.45,0,0,1,.15.4V20.87a1.84,1.84,0,0,0,.2,1c.13.19.41.29.83.29l.53,0,.5-.05a.53.53,0,0,1,.35,0,.42.42,0,0,1,.13.29Z"/><path class="cls-1" d="M234.33,10.32a6.62,6.62,0,0,1,4.87,1.62,6.29,6.29,0,0,1,1.62,4.65,2.7,2.7,0,0,1-.56,2,2.13,2.13,0,0,1-1.53.53h-7.11a4,4,0,0,0,.29,1.47,2.54,2.54,0,0,0,.71.94,2.51,2.51,0,0,0,1,.5,5.67,5.67,0,0,0,1.29.14,7.23,7.23,0,0,0,1.64-.19,9.49,9.49,0,0,0,1.55-.5.86.86,0,0,1,.46-.07.48.48,0,0,1,.23.26l.89,2a.48.48,0,0,1,0,.39.79.79,0,0,1-.29.28,7.05,7.05,0,0,1-2.39,1,12.1,12.1,0,0,1-2.53.29q-3.64,0-5.39-1.81T227.45,18a10.14,10.14,0,0,1,.49-3.26,6.86,6.86,0,0,1,1.39-2.43,5.87,5.87,0,0,1,2.17-1.51A7.52,7.52,0,0,1,234.33,10.32Zm.08,3.33a2.38,2.38,0,0,0-1.86.8,3.45,3.45,0,0,0-.83,2.05h5.19a4.93,4.93,0,0,0-.12-1.14,2.5,2.5,0,0,0-.4-.9,2,2,0,0,0-.75-.6A2.87,2.87,0,0,0,234.42,13.65Z"/></svg>