<?xml version="1.0" encoding="utf-8"?>
<!-- Generator: Adobe Illustrator 18.0.0, SVG Export Plug-In . SVG Version: 6.00 Build 0)  -->
<!DOCTYPE svg PUBLIC "-//W3C//DTD SVG 1.1//EN" "http://www.w3.org/Graphics/SVG/1.1/DTD/svg11.dtd">
<svg version="1.1" id="Layer_1" xmlns="http://www.w3.org/2000/svg" xmlns:xlink="http://www.w3.org/1999/xlink" x="0px" y="0px"
	 viewBox="0 0 7 7" enable-background="new 0 0 7 7" xml:space="preserve">
<g>
	<path fill="#C1272D" d="M6.1,7H0.9C0.5,7,0.1,6.6,0.1,6.2V0.8C0.1,0.4,0.5,0,0.9,0h5.1c0.5,0,0.8,0.4,0.8,0.8v5.3
		C6.9,6.6,6.5,7,6.1,7z M0.9,0.3c-0.3,0-0.5,0.2-0.5,0.5v5.3c0,0.3,0.2,0.5,0.5,0.5h5.1c0.3,0,0.5-0.2,0.5-0.5V0.8
		c0-0.3-0.2-0.5-0.5-0.5H0.9z"/>
	<g>
		<path fill="#C1272D" d="M5.8,4.4c-0.1,0-0.2-0.1-0.3-0.1C5.4,4.2,5.2,4.1,5.1,4C5,3.9,4.9,3.9,4.8,3.9c-0.1,0-0.2,0-0.3,0.1L4.5,4
			C4.2,4.1,4,4.3,3.8,4.3c-0.1,0-0.2,0-0.3,0C3.1,4.4,2.7,4.1,2.4,4c-0.1,0-0.2-0.1-0.2-0.1c-0.1,0-0.1,0-0.2,0.1
			C1.8,4,1.6,4.1,1.5,4.2L1.2,4.4c0,0,0,0,0,0l0,0c0,0,0,0,0.1,0c0,0,0.6,0.4,0.8,0.5c0,0,0.1,0,0.2,0l0,0c0,0,0,0,0,0
			c0,0,0.1,0,0.2-0.1c0.1,0,0.1-0.1,0.2-0.1c0.1-0.1,0.2-0.1,0.3-0.2c0.2-0.1,0.4-0.2,0.6-0.2c0.2,0,0.4,0.1,0.6,0.2
			C4.3,4.8,4.4,4.9,4.6,5C4.7,5,4.7,5,4.8,5C4.9,5,4.9,5,5,5c0.2-0.1,0.4-0.3,0.7-0.4L5.8,4.4C5.8,4.5,5.9,4.5,5.8,4.4L5.8,4.4
			C5.9,4.4,5.8,4.4,5.8,4.4L5.8,4.4z"/>
		<path fill="#C1272D" d="M4.2,5.4L4.2,5.4C3.9,5.3,3.8,5.2,3.6,5.1c0,0-0.1,0-0.1,0C3.3,5.1,3.2,5.2,3,5.3c-0.1,0-0.1,0.1-0.2,0.1
			c0,0,0.1,0.1,0.1,0.1c0.2,0.1,0.4,0.2,0.5,0.3c0.2,0,0.4-0.2,0.6-0.3C4.1,5.5,4.2,5.5,4.2,5.4C4.2,5.5,4.2,5.4,4.2,5.4z"/>
		<path fill="#C1272D" d="M1.2,2.5c0,0,0.6,0.4,0.8,0.5c0,0,0.1,0,0.2,0l0,0c0,0,0,0,0,0c0,0,0.1,0,0.2-0.1c0.1,0,0.1-0.1,0.2-0.1
			c0.1-0.1,0.2-0.1,0.3-0.2c0.2-0.1,0.4-0.2,0.6-0.2c0.2,0,0.4,0.1,0.6,0.2C4.3,2.8,4.4,2.9,4.6,3c0.1,0,0.1,0.1,0.2,0.1
			c0.1,0,0.1,0,0.2-0.1c0.2-0.1,0.4-0.3,0.7-0.4l0.2-0.1c0,0,0,0,0,0l0,0c0,0,0,0,0,0l0,0c-0.1,0-0.2-0.1-0.3-0.1
			C5.4,2.2,5.2,2.1,5.1,2C5,2,4.9,1.9,4.8,1.9C4.7,1.9,4.6,2,4.5,2l-0.1,0C4.2,2.2,4,2.3,3.8,2.4c-0.1,0-0.2,0-0.3,0
			C3.1,2.4,2.7,2.2,2.4,2C2.4,2,2.3,1.9,2.2,1.9C2.1,1.9,2.1,1.9,2,2C1.8,2.1,1.6,2.2,1.5,2.3L1.2,2.5C1.2,2.5,1.1,2.5,1.2,2.5
			L1.2,2.5C1.1,2.5,1.2,2.5,1.2,2.5z"/>
		<path fill="#C1272D" d="M2.9,3.6c0.2,0.1,0.4,0.2,0.5,0.3c0.2,0,0.4-0.2,0.6-0.3c0,0,0.1-0.1,0.1-0.1c0,0,0,0,0,0l0,0c0,0,0,0,0,0
			l0,0c0,0,0,0,0,0l-0.1,0C3.9,3.3,3.8,3.2,3.7,3.2c-0.1,0-0.1,0-0.2,0c-0.1,0-0.1,0-0.2,0C3.2,3.2,3.1,3.3,3,3.4L2.9,3.4
			c0,0,0,0,0,0c0,0,0,0,0,0c0,0,0,0,0,0C2.9,3.5,2.9,3.6,2.9,3.6z"/>
		<path fill="#C1272D" d="M2.9,1.6c0.2,0.1,0.4,0.2,0.6,0.2l0,0c0.2,0,0.4-0.1,0.6-0.2c0,0,0,0,0,0l0,0c0,0,0,0,0,0l-0.1,0
			C3.9,1.4,3.8,1.3,3.7,1.2c-0.1,0-0.1,0-0.2,0c-0.1,0-0.1,0-0.2,0C3.2,1.3,3.1,1.3,3,1.4L2.9,1.6C2.8,1.5,2.8,1.5,2.9,1.6
			C2.8,1.5,2.9,1.6,2.9,1.6z"/>
	</g>
</g>
</svg>
