<?xml version="1.0" encoding="utf-8"?>
<!-- Generator: Adobe Illustrator 18.0.0, SVG Export Plug-In . SVG Version: 6.00 Build 0)  -->
<!DOCTYPE svg PUBLIC "-//W3C//DTD SVG 1.1//EN" "http://www.w3.org/Graphics/SVG/1.1/DTD/svg11.dtd">
<svg version="1.1" id="Layer_1" xmlns="http://www.w3.org/2000/svg" xmlns:xlink="http://www.w3.org/1999/xlink" x="0px" y="0px"
	 viewBox="0 0 3 3" enable-background="new 0 0 3 3" xml:space="preserve">
<g>
	<g>
		<path fill="#19286E" d="M1.5,2.4c-0.4,0-0.8,0-1.2,0C0.1,2.4,0,2.4,0,2.2C0,2.1,0.1,2,0.2,2c0.2-0.1,0.4-0.3,0.3-0.6
			c0-0.3,0.1-0.7,0.3-0.9c0,0,0.1-0.1,0.2-0.1c0.1-0.1,0.2-0.1,0.2-0.3C1.3,0.1,1.4,0,1.5,0c0.1,0,0.2,0.1,0.3,0.3
			c0,0.1,0,0.1,0.1,0.1c0.4,0.2,0.6,0.5,0.6,0.9c0,0.1,0,0.1,0,0.2c0,0.2,0.1,0.4,0.3,0.5C3,2,3,2.2,3,2.2c0,0.1-0.1,0.2-0.3,0.2
			C2.3,2.4,1.9,2.4,1.5,2.4z"/>
		<path fill="#19286E" d="M2,2.6C2,2.8,1.8,3,1.5,3C1.3,3,1,2.8,1,2.6C1.3,2.6,1.7,2.6,2,2.6z"/>
	</g>
</g>
</svg>
