<?xml version="1.0" encoding="utf-8"?>
<!-- Generator: Adobe Illustrator 17.1.0, SVG Export Plug-In . SVG Version: 6.00 Build 0)  -->
<!DOCTYPE svg PUBLIC "-//W3C//DTD SVG 1.1//EN" "http://www.w3.org/Graphics/SVG/1.1/DTD/svg11.dtd">
<svg version="1.1" id="Layer_1" xmlns="http://www.w3.org/2000/svg" xmlns:xlink="http://www.w3.org/1999/xlink" x="0px" y="0px"
	 viewBox="0 0 30 30" enable-background="new 0 0 30 30" xml:space="preserve">
<rect fill="#F5F6FB" width="30" height="30"/>
<path fill="#DBE4F5" d="M5,30h20.2c0.1-0.3,0-7,0-7.4c0-3.7-3.5-5.7-7.2-6.4c1.5-1,2.5-2.7,2.5-4.7C20.5,8.5,18.1,6,15,6
	s-5.5,2.5-5.5,5.5c0,2,1,3.7,2.5,4.7c-3.8,0.7-7.2,2.7-7.2,6.4c0,0.4-0.1,7,0,7.4c0.1,0.1,0.1,0.1,0.2,0.2V30z"/>
</svg>
