<svg xmlns="http://www.w3.org/2000/svg" style="width:0; height:0; visibility:hidden;">
<symbol id="nav-monitoring" viewBox="0 0 15 15">
    <line stroke-linecap="round" stroke-linejoin="round" stroke-miterlimit="10" x1="0.7" y1="1.1" x2="14.3" y2="1.1"/>
    <line stroke-linecap="round" stroke-linejoin="round" stroke-miterlimit="10" x1="0.7" y1="11.3" x2="14.3" y2="11.3"/>
    <line stroke-linecap="round" stroke-linejoin="round" stroke-miterlimit="10" x1="2" y1="1.4" x2="2" y2="11"/>
    <line stroke-linecap="round" stroke-linejoin="round" stroke-miterlimit="10" x1="13" y1="1.4" x2="13" y2="11"/>
    <line stroke-linecap="round" stroke-linejoin="round" stroke-miterlimit="10" x1="8.7" y1="13.9" x2="6.3" y2="13.9"/>
    <line stroke-linecap="round" stroke-linejoin="round" stroke-miterlimit="10" x1="7.5" y1="13.9" x2="7.5" y2="12.9"/>
    <polyline stroke-linecap="round" stroke-linejoin="round" stroke-miterlimit="10" points="3.8,7.5
    6.7,5.6 7.4,7.5 10.6,5.4 	"/>
</symbol>
<symbol id="nav-environment" viewBox="0 0 15 15">
    <line stroke-linecap="round" stroke-linejoin="round" stroke-miterlimit="10" x1="11.2" y1="9.8" x2="8.4" y2="9.8"/>
    <circle stroke-linecap="round" stroke-linejoin="round" stroke-miterlimit="10" cx="3" cy="7.5" r="1.8"/>
    <circle stroke-linecap="round" stroke-linejoin="round" stroke-miterlimit="10" cx="12" cy="7.5" r="1.8"/>
    <circle stroke-linecap="round" stroke-linejoin="round" stroke-miterlimit="10" cx="7.5" cy="2.3" r="1.8"/>
    <line stroke-linecap="round" stroke-linejoin="round" stroke-miterlimit="10" x1="4.2" y1="6.3" x2="6.3" y2="3.5"/>
    <line stroke-linecap="round" stroke-linejoin="round" stroke-miterlimit="10" x1="8.7" y1="3.5" x2="10.8" y2="6.3"/>
    <circle stroke-linecap="round" stroke-linejoin="round" stroke-miterlimit="10" cx="7.5" cy="12.7" r="1.8"/>
    <line stroke-linecap="round" stroke-linejoin="round" stroke-miterlimit="10" x1="10.8" y1="8.7" x2="8.7" y2="11.5"/>
    <line stroke-linecap="round" stroke-linejoin="round" stroke-miterlimit="10" x1="6.3" y1="11.5" x2="4.2" y2="8.7"/>
</symbol>
<symbol id="nav-kurjun" viewBox="0 0 15 15" enable-background="new 0 0 15 15" xml:space="preserve">
    <path stroke-linecap="round" stroke-linejoin="round" stroke-miterlimit="10" d="M10.7,0.5L8.6,3.8
    C11,4.3,12.8,6.5,12.8,9v2.8c0,1.5-1.2,2.7-2.7,2.7H4.8c-1.5,0-2.7-1.2-2.7-2.7V9c0-2.6,1.8-4.7,4.3-5.2L4.3,0.5H8"/>
    <polyline stroke-linecap="round" stroke-linejoin="round" stroke-miterlimit="10" points="10,11.8
    7.6,10.1 7.6,10 9.9,8 "/>
    <line stroke-linecap="round" stroke-linejoin="round" stroke-miterlimit="10" x1="5.7" y1="7.9" x2="5.7" y2="11.9"/>
</symbol>
<symbol id="nav-console" viewBox="0 0 15 15">
    <line stroke-linecap="round" stroke-linejoin="round" stroke-miterlimit="10" x1="11.2" y1="9.8" x2="8.4" y2="9.8"/>
    <line stroke-linecap="round" stroke-linejoin="round" stroke-miterlimit="10" x1="6.8" y1="7.6" x2="3.8" y2="5.6"/>
    <line stroke-linecap="round" stroke-linejoin="round" stroke-miterlimit="10" x1="6.9" y1="7.7" x2="3.7" y2="9.4"/>
    <path stroke-linecap="round" stroke-linejoin="round" stroke-miterlimit="10" d="M12.5,13.1h-10
    c-1.1,0-2-0.9-2-2V3.9c0-1.1,0.9-2,2-2h10c1.1,0,2,0.9,2,2v7.2C14.5,12.2,13.6,13.1,12.5,13.1z"/>
</symbol>
<symbol id="nav-user-identity" viewBox="0 0 15 15">
    <line stroke-linecap="round" stroke-linejoin="round" stroke-miterlimit="10" x1="10.4" y1="11.9" x2="10.4" y2="9"/>
    <line stroke-linecap="round" stroke-linejoin="round" stroke-miterlimit="10" x1="9" y1="10.4" x2="11.9" y2="10.4"/>
    <circle stroke-linecap="round" stroke-linejoin="round" stroke-miterlimit="10" cx="10.4" cy="10.4" r="3.9"/>
    <path stroke-linecap="round" stroke-linejoin="round" stroke-miterlimit="10" d="M9.1,3.3
    c0,1.8-0.6,3-1.4,3.5C7.4,7,7,7.2,6.5,7.2C6.1,7.2,5.7,7,5.3,6.8C4.5,6.3,3.9,5.1,3.9,3.3c0-1.4,1.2-2.6,2.6-2.6
    C8,0.7,9.1,1.8,9.1,3.3z"/>
    <path stroke-linecap="round" stroke-linejoin="round" stroke-miterlimit="10" d="M5.2,6.7
    C5.1,7.5,4.7,8.2,3.9,8.5c-2,0.7-3.3,1.3-3.3,3.3s5.9,2,5.9,2s0.7,0,1.6-0.1"/>
    <path stroke-linecap="round" stroke-linejoin="round" stroke-miterlimit="10" d="M8,7.4
    C7.9,7.2,7.9,7,7.8,6.7"/>
</symbol>
<symbol id="nav-peer-registration" viewBox="0 0 15 15">
    <circle stroke-linecap="round" stroke-linejoin="round" stroke-miterlimit="10" cx="2.5" cy="10.4" r="1.9"/>
    <circle stroke-linecap="round" stroke-linejoin="round" stroke-miterlimit="10" cx="12.5" cy="10.4" r="1.9"/>
    <circle stroke-linecap="round" stroke-linejoin="round" stroke-miterlimit="10" cx="7.5" cy="4.6" r="1.9"/>
    <line stroke-linecap="round" stroke-linejoin="round" stroke-miterlimit="10" x1="3.9" y1="9" x2="6.1" y2="6"/>
    <line stroke-linecap="round" stroke-linejoin="round" stroke-miterlimit="10" x1="8.9" y1="6" x2="11.1" y2="9"/>
</symbol>
<symbol id="nav-resource-host" viewBox="0 0 15 15">
    <line stroke-linecap="round" stroke-linejoin="round" stroke-miterlimit="10" x1="14" y1="3.3" x2="14" y2="11.7"/>
    <line stroke-linecap="round" stroke-linejoin="round" stroke-miterlimit="10" x1="7.5" y1="5.7" x2="7.5" y2="14"/>
    <line stroke-linecap="round" stroke-linejoin="round" stroke-miterlimit="10" x1="1" y1="3.3" x2="1" y2="11.7"/>
    <polygon stroke-linecap="round" stroke-linejoin="round" stroke-miterlimit="10" points="7.5,1
    1,3.3 7.5,5.7 14,3.3 	"/>
    <polyline stroke-linecap="round" stroke-linejoin="round" stroke-miterlimit="10" points="1,11.7
    7.5,14 14,11.7 	"/>
</symbol>
<symbol id="nav-tracker" viewBox="0 0 15 15">
    <path stroke-linecap="round" stroke-linejoin="round" stroke-miterlimit="10" d="M12.5,13.1h-10
    c-1.1,0-2-0.9-2-2V3.9c0-1.1,0.9-2,2-2h10c1.1,0,2,0.9,2,2v7.2C14.5,12.2,13.6,13.1,12.5,13.1z"/>
    <line stroke-linecap="round" stroke-linejoin="round" stroke-miterlimit="10" x1="8" y1="6" x2="6.8" y2="9.5"/>
    <line stroke-linecap="round" stroke-linejoin="round" stroke-miterlimit="10" x1="12" y1="7.9" x2="9.8" y2="6.4"/>
    <line stroke-linecap="round" stroke-linejoin="round" stroke-miterlimit="10" x1="12.1" y1="8" x2="9.7" y2="9.3"/>
    <line stroke-linecap="round" stroke-linejoin="round" stroke-miterlimit="10" x1="3" y1="7.9" x2="5.2" y2="6.3"/>
    <line stroke-linecap="round" stroke-linejoin="round" stroke-miterlimit="10" x1="2.9" y1="8" x2="5.2" y2="9.3"/>
</symbol>
<symbol id="nav-plugins" viewBox="0 0 15 15">
    <line stroke-linecap="round" stroke-linejoin="round" stroke-miterlimit="10" x1="5" y1="1" x2="5" y2="5.1"/>
    <line stroke-linecap="round" stroke-linejoin="round" stroke-miterlimit="10" x1="7.5" y1="11.6" x2="7.5" y2="14"/>
    <line stroke-linecap="round" stroke-linejoin="round" stroke-miterlimit="10" x1="10.1" y1="1" x2="10.1" y2="5.1"/>
    <path stroke-linecap="round" stroke-linejoin="round" stroke-miterlimit="10" d="M7.5,11.6L7.5,11.6
    c-2.8,0-5-1.7-5-3.9V5.1h9.9v2.6C12.5,9.9,10.3,11.6,7.5,11.6z"/>
    <path stroke-linecap="round" stroke-linejoin="round" stroke-miterlimit="10" d="M5,5.1"/>
</symbol>
<symbol id="nav-bazaar" viewBox="0 0 15 15">
    <path stroke-linecap="round" stroke-linejoin="round" stroke-miterlimit="10" d="M1.4,3.9V11
    c0,1.3,1.1,2.4,2.4,2.4h7.1c1.3,0,2.4-1.1,2.4-2.4V3.9"/>
    <line stroke-linecap="round" stroke-linejoin="round" stroke-miterlimit="10" x1="1.4" y1="8.8" x2="13.2" y2="8.8"/>
    <line stroke-linecap="round" stroke-linejoin="round" stroke-miterlimit="10" x1="6.3" y1="11" x2="8.4" y2="11"/>
    <path stroke-linecap="round" stroke-linejoin="round" stroke-miterlimit="10" d="M14.1,3.9v-1
    c0-1.3-1.1-2.4-2.4-2.4H2.9c-1.3,0-2.4,1.1-2.4,2.4v1H14.1z"/>
</symbol>
<symbol id="nav-system-settings" viewBox="0 0 15 15">
	<path stroke-linecap="round" stroke-linejoin="round" stroke-miterlimit="10" d="M12.1,1.8
		c0.2,0.2,0.2,0.5,0.1,0.7C11.7,3,11.6,3.9,12,4.6c0.4,0.7,1.2,1.1,1.9,0.9c0.3,0,0.5,0.1,0.6,0.4c0.1,0.4,0.1,0.8,0.1,1.2
		s0,0.8-0.1,1.2c0,0.3-0.3,0.4-0.6,0.4C13.2,8.7,12.4,9,12,9.7c-0.4,0.7-0.3,1.5,0.2,2.2c0.2,0.2,0.2,0.5-0.1,0.7
		c-0.6,0.5-1.4,1-2.2,1.2c-0.2,0.1-0.5-0.1-0.6-0.3c-0.3-0.7-1-1.2-1.8-1.2s-1.5,0.5-1.8,1.2c-0.1,0.2-0.4,0.4-0.6,0.3
		c-0.8-0.3-1.5-0.7-2.2-1.2c-0.2-0.2-0.2-0.5-0.1-0.7c0.5-0.6,0.6-1.5,0.2-2.2C2.7,9,1.9,8.7,1.2,8.8c-0.3,0-0.5-0.1-0.6-0.4
		C0.5,8,0.5,7.6,0.5,7.2s0-0.8,0.1-1.2c0-0.3,0.3-0.4,0.6-0.4c0.8,0.1,1.5-0.2,1.9-0.9C3.5,3.9,3.4,3,3,2.4C2.8,2.2,2.8,1.9,3,1.8
		c0.6-0.5,1.4-1,2.2-1.2c0.2-0.1,0.5,0.1,0.6,0.3C6.1,1.5,6.7,2,7.6,2s1.5-0.5,1.8-1.2C9.4,0.6,9.7,0.4,10,0.5
		C10.8,0.8,11.5,1.2,12.1,1.8z"/>
		<circle stroke-linecap="round" stroke-linejoin="round" stroke-miterlimit="10" cx="7.6" cy="7.2" r="1.9"/>
</symbol>
</svg>