<?xml version="1.0" encoding="utf-8"?>
<!-- Generator: Adobe Illustrator 17.1.0, SVG Export Plug-In . SVG Version: 6.00 Build 0)  -->
<!DOCTYPE svg PUBLIC "-//W3C//DTD SVG 1.1//EN" "http://www.w3.org/Graphics/SVG/1.1/DTD/svg11.dtd">
<svg version="1.1" id="Layer_1" xmlns="http://www.w3.org/2000/svg" xmlns:xlink="http://www.w3.org/1999/xlink" x="0px" y="0px"
	 viewBox="0 0 214.4 156.6" enable-background="new 0 0 214.4 156.6" xml:space="preserve">
<g>
	<path fill="#EBECEC" d="M92.9,6c-0.1,1.6,0,3.2,0,4.7c-0.1,2.9-0.8,4.6-2.4,5.5c0,0,0,0,0,0c-0.1,0.1-0.2,0.1-0.3,0.1
		c-0.7,0.3-1.6,0.5-2.6,0.6c-0.8,0-1.6-0.1-2.6-0.1c-0.6,0-1.1-0.1-1.6-0.1c-0.4-0.1-0.8-0.2-1.1-0.4c-0.1,0-0.2-0.1-0.3-0.1
		c0,0,0,0,0,0c-1.6-0.9-2.3-2.6-2.4-5.2c0-0.4,0-0.9,0-1.3c0-0.9,0-1.7,0-2.4c0-0.5,0-0.9,0-1.4c-0.1-1-0.2-1.7-0.4-2.3
		C78.5,2.2,77.1,2,74,2c-0.7,0-1.5,0-2.5,0c-0.1,0-0.1,0-0.2,0c-0.5,0-1.1,0-1.6,0c-1.2,0.1-2,0.4-2.6,1.1c0,0,0,0,0,0c0,0,0,0,0,0
		c-0.6,0.6-0.9,1.6-0.9,2.9c0,0.6,0,1.2,0,1.8c0,0.1,0,0.1,0,0.2c0,1.1,0,2,0,2.8c0,3.5,0.2,5.1,1.6,5.8c0.5,0.3,1.2,0.4,2,0.5
		c0.4,0,0.8,0,1.2,0c0.6,0,1.3,0,2.1,0c0.4,0,0.8,0,1.2,0c2.4,0.2,3.8,1,4.6,2.7c0,0,0,0,0,0c0,0.1,0.1,0.2,0.1,0.3
		c0.1,0.4,0.2,0.8,0.3,1.3c0.1,0.5,0.1,1.1,0.1,1.8c0,1.1,0,2.1,0.1,2.9c-0.1,1.2-0.2,2.1-0.5,2.9c0,0.1-0.1,0.2-0.1,0.3
		c0,0,0,0,0,0c-0.8,1.8-2.4,2.7-4.9,2.8c-1.4,0.1-2.8-0.1-4.2,0c-3.2,0.2-3.6,1.3-3.6,9.1c0,4.5,0.8,5.8,3.6,6c1,0.1,2,0,3,0
		c6.7,0,6.8-0.2,6.8-7.8c0-0.5,0-0.9,0-1.4c0-2.8,0.7-4.4,2.2-5.3c0,0,0.1,0,0.1,0c0.8-0.4,1.8-0.6,3.1-0.6c0.2,0,0.4,0,0.5,0
		c0.2,0,0.5,0,0.7,0c3.2,0,4.9-0.1,5.7-1.2c1-1,1.1-2.9,1.1-6.5c0-0.3,0-0.5,0-0.8c0-0.2,0-0.4,0-0.6c0-1.5,0.2-2.7,0.5-3.6
		c0,0,0-0.1,0-0.1c0.7-1.7,2.2-2.4,4.6-2.5c0.4,0,0.8,0,1.2,0c6.7,0,6.9-0.2,6.9-7.7c0-1.1,0.1-2.3,0-3.4c-0.2-3.2-1.4-4.1-5.3-4.1
		C94,1.9,93.1,2.4,92.9,6z"/>
	<path fill="#EBECEC" d="M0,12.4c0,3.1,0.2,4.5,1.8,5.1c0.6,0.3,1.3,0.4,2.3,0.4c0.5,0,0.9,0,1.4,0c0.7,0,1.5,0,2.4,0
		c0.4,0,0.9,0,1.3,0c2.7,0.1,4.3,0.9,5.2,2.4c0,0,0,0,0,0c0.1,0.1,0.1,0.2,0.1,0.3c0.1,0.3,0.3,0.7,0.3,1.1c0.1,0.5,0.1,1,0.2,1.6
		c0,0.2,0,0.4,0,0.5c0,0.2,0,0.5,0,0.7c0,0.2,0,0.5,0,0.7c0,0.2,0,0.4,0,0.6c0,0.6-0.1,1.1-0.1,1.6c-0.1,0.4-0.2,0.8-0.4,1.1
		c0,0.1-0.1,0.2-0.1,0.3c0,0,0,0,0,0c-0.9,1.6-2.6,2.3-5.2,2.4c-0.4,0-0.9,0-1.3,0c-0.9,0-1.7,0-2.4,0c-0.5,0-0.9,0-1.4,0
		c-1,0.1-1.7,0.2-2.3,0.4c-1.5,0.6-1.7,2-1.8,5.1c0,0.7,0,1.5,0,2.5c0,0.1,0,0.1,0,0.2c0,0.5,0,1.1,0,1.6c0.1,1.2,0.4,2,1.1,2.6
		c0,0,0,0,0,0c0,0,0,0,0,0c0.6,0.6,1.6,0.9,2.9,0.9c0.6,0,1.2,0,1.8,0c0.1,0,0.1,0,0.2,0c1.1,0,2,0,2.8,0c3.5,0,5.1-0.2,5.8-1.6
		c0.3-0.5,0.4-1.2,0.5-2c0-0.4,0-0.8,0-1.2c0-0.6,0-1.3,0-2.1c0-0.4,0-0.8,0-1.2c0.2-2.4,1-3.8,2.7-4.6c0,0,0,0,0,0
		c0.1,0,0.2-0.1,0.3-0.1c0.4-0.1,0.8-0.2,1.3-0.3c0.5-0.1,1.1-0.1,1.8-0.1c0.2,0,0.4,0,0.6,0c0.3,0,0.5,0,0.8,0c0.3,0,0.5,0,0.8,0
		c0.2,0,0.4,0,0.6,0c0.7,0,1.3,0.1,1.8,0.1c0.4,0.1,0.8,0.2,1.2,0.3c0.1,0,0.2,0.1,0.3,0.1c0,0,0,0,0,0c1.8,0.8,2.6,2.3,2.7,4.6
		c0,0.4,0,0.8,0,1.2c0,0.8,0,1.5,0,2.1c0,0.4,0,0.8,0,1.2c0.1,0.9,0.2,1.5,0.5,2c0.7,1.3,2.2,1.5,5.8,1.6c0.8,0,1.7,0,2.8,0
		c0.1,0,0.1,0,0.2,0c0.6,0,1.2,0,1.8,0c1.4-0.1,2.3-0.3,2.9-0.9c0,0,0,0,0,0c0,0,0,0,0,0c0.7-0.6,1-1.4,1.1-2.6c0-0.5,0-1.1,0-1.6
		c0-0.1,0-0.1,0-0.2c0-0.9,0-1.7,0-2.5c0-3.1-0.2-4.5-1.8-5.1c-0.6-0.3-1.3-0.4-2.3-0.4c-0.5,0-0.9,0-1.4,0c-0.7,0-1.5,0-2.4,0
		c-0.4,0-0.9,0-1.3,0c-2.7-0.1-4.3-0.9-5.2-2.4c0,0,0,0,0,0c-0.1-0.1-0.1-0.2-0.1-0.3c-0.1-0.3-0.3-0.7-0.3-1.1
		c-0.1-0.5-0.1-1-0.2-1.6c0-0.2,0-0.4,0-0.5c0-0.2,0-0.5,0-0.7c0-0.2,0-0.5,0-0.7c0-0.2,0-0.4,0-0.6c0-0.6,0.1-1.1,0.1-1.6
		c0.1-0.4,0.2-0.8,0.4-1.1c0-0.1,0.1-0.2,0.1-0.3c0,0,0,0,0,0c0.9-1.6,2.6-2.3,5.2-2.4c0.4,0,0.9,0,1.3,0c0.9,0,1.7,0,2.4,0
		c0.5,0,0.9,0,1.4,0c1-0.1,1.7-0.2,2.3-0.4c1.5-0.6,1.7-2,1.8-5.1c0-0.7,0-1.5,0-2.5c0-0.1,0-0.1,0-0.2c0-0.5,0-1.1,0-1.6
		c-0.1-1.2-0.4-2-1.1-2.6c0,0,0,0,0,0c0,0,0,0,0,0c-0.6-0.6-1.6-0.9-2.9-0.9c-0.6,0-1.2,0-1.8,0c-0.1,0-0.1,0-0.2,0
		c-1.1,0-2,0-2.8,0c-3.5,0-5.1,0.2-5.8,1.6c-0.3,0.5-0.4,1.2-0.5,2c0,0.4,0,0.8,0,1.2c0,0.6,0,1.3,0,2.1c0,0.4,0,0.8,0,1.2
		c-0.2,2.4-1,3.8-2.7,4.6c0,0,0,0,0,0c-0.1,0-0.2,0.1-0.3,0.1c-0.4,0.1-0.8,0.2-1.3,0.3c-0.5,0.1-1.1,0.1-1.8,0.1
		c-0.2,0-0.4,0-0.6,0c-0.3,0-0.5,0-0.8,0c-0.3,0-0.5,0-0.8,0c-0.2,0-0.4,0-0.6,0c-0.7,0-1.3-0.1-1.8-0.1c-0.4-0.1-0.8-0.2-1.2-0.3
		c-0.1,0-0.2-0.1-0.3-0.1c0,0,0,0,0,0c-1.8-0.8-2.6-2.3-2.7-4.6c0-0.4,0-0.8,0-1.2c0-0.8,0-1.5,0-2.1c0-0.4,0-0.8,0-1.2
		c-0.1-0.9-0.2-1.5-0.5-2C14,4.8,12.4,4.6,8.9,4.6c-0.8,0-1.7,0-2.8,0c-0.1,0-0.1,0-0.2,0c-0.6,0-1.2,0-1.8,0C2.7,4.7,1.8,5,1.1,5.5
		c0,0,0,0,0,0c0,0,0,0,0,0C0.4,6.1,0.1,7,0,8.2c0,0.5,0,1.1,0,1.6c0,0.1,0,0.1,0,0.2C0,10.9,0,11.7,0,12.4z"/>
	<path fill="#EBECEC" d="M4.1,116.5c-3.2,0.2-4.1,1.4-4.1,5.3c0,6.9,0.4,7.8,4.1,8c1.6,0.1,3.2,0,4.7,0c2.9,0.1,4.6,0.8,5.5,2.4
		c0,0,0,0,0,0c0.1,0.1,0.1,0.2,0.1,0.3c0.4,1,0.6,2.3,0.7,3.9c0,1.6-0.2,2.9-0.7,3.9c0,0.1-0.1,0.2-0.1,0.3c0,0,0,0,0,0
		c-0.9,1.6-2.7,2.3-5.5,2.4c-1.6,0.1-3.2-0.1-4.7,0c-3.6,0.2-4.1,1.1-4.1,8c0,3.9,0.9,5.1,4.1,5.3c1.1,0.1,2.3,0,3.4,0
		c7.6,0,7.7-0.1,7.7-6.9c0-0.4,0-0.8,0-1.2c0-2.5,0.7-3.9,2.5-4.6c0,0,0.1,0,0.1,0c0.9-0.3,2.1-0.5,3.6-0.5c1.2,0,2.2,0,3.1-0.1
		c0.1,0,0.1,0,0.2,0c1.8,0,3.1-0.2,4-0.6c1.7-0.7,1.9-2.4,1.9-6.1c0-3.7-0.2-5.4-1.9-6.1c-0.9-0.4-2.2-0.6-4-0.6c-0.1,0-0.1,0-0.2,0
		c-0.9,0-1.9-0.1-3.1-0.1c-1.5,0-2.7-0.2-3.6-0.5c0,0-0.1,0-0.1,0c-1.7-0.7-2.4-2.2-2.5-4.6c0-0.4,0-0.8,0-1.2
		c0-6.7-0.2-6.9-7.7-6.9C6.3,116.5,5.2,116.4,4.1,116.5z"/>
	<path fill="#EBECEC" d="M74.8,105.5c3.2-0.2,4.1-1.4,4.1-5.3c0-6.9-0.4-7.8-4.1-8c-1.6-0.1-3.2,0-4.7,0c-2.9-0.1-4.6-0.8-5.5-2.4
		c0,0,0,0,0,0c-0.1-0.1-0.1-0.2-0.1-0.3c-0.4-1-0.6-2.3-0.7-3.9c0-1.6,0.2-2.9,0.7-3.9c0-0.1,0.1-0.2,0.1-0.3c0,0,0,0,0,0
		c0.9-1.6,2.7-2.3,5.5-2.4c1.6-0.1,3.2,0.1,4.7,0c3.6-0.2,4.1-1.1,4.1-8c0-3.9-0.9-5.1-4.1-5.3c-1.1-0.1-2.3,0-3.4,0
		c-7.6,0-7.7,0.1-7.7,6.9c0,0.4,0,0.8,0,1.2c0,2.5-0.7,3.9-2.5,4.6c0,0-0.1,0-0.1,0c-0.9,0.3-2.1,0.5-3.6,0.5c-1.2,0-2.2,0-3.1,0.1
		c-0.1,0-0.1,0-0.2,0c-1.8,0-3.1,0.2-4,0.6c-1.7,0.7-1.9,2.4-1.9,6.1c0,3.7,0.2,5.4,1.9,6.1c0.9,0.4,2.2,0.6,4,0.6
		c0.1,0,0.1,0,0.2,0c0.9,0,1.9,0.1,3.1,0.1c1.5,0,2.7,0.2,3.6,0.5c0,0,0.1,0,0.1,0c1.7,0.7,2.4,2.2,2.5,4.6c0,0.4,0,0.8,0,1.2
		c0,6.7,0.2,6.9,7.7,6.9C72.6,105.5,73.7,105.6,74.8,105.5z"/>
	<path fill="#EBECEC" d="M214.4,4.1C214.2,0.9,213,0,209.1,0c-6.9,0-7.8,0.4-8,4.1c-0.1,1.6,0,3.2,0,4.7c-0.1,2.9-0.8,4.6-2.4,5.5
		c0,0,0,0,0,0c-0.1,0.1-0.2,0.1-0.3,0.1c-1,0.4-2.3,0.6-3.9,0.7c-1.6,0-2.9-0.2-3.9-0.7c-0.1,0-0.2-0.1-0.3-0.1c0,0,0,0,0,0
		c-1.6-0.9-2.3-2.7-2.4-5.5c-0.1-1.6,0.1-3.2,0-4.7c-0.2-3.6-1.1-4.1-8-4.1c-3.9,0-5.1,0.9-5.3,4.1c-0.1,1.1,0,2.3,0,3.4
		c0,7.6,0.1,7.7,6.9,7.7c0.4,0,0.8,0,1.2,0c2.5,0,3.9,0.7,4.6,2.5c0,0,0,0.1,0,0.1c0.3,0.9,0.5,2.1,0.5,3.6c0,1.2,0,2.2,0.1,3.1
		c0,0.1,0,0.1,0,0.2c0,1.8,0.2,3.1,0.6,4c0.7,1.7,2.4,1.9,6.1,1.9c3.7,0,5.4-0.2,6.1-1.9c0.4-0.9,0.6-2.2,0.6-4c0-0.1,0-0.1,0-0.2
		c0-0.9,0.1-1.9,0.1-3.1c0-1.5,0.2-2.7,0.5-3.6c0,0,0-0.1,0-0.1c0.7-1.7,2.2-2.4,4.6-2.5c0.4,0,0.8,0,1.2,0c6.7,0,6.9-0.2,6.9-7.7
		C214.4,6.3,214.5,5.2,214.4,4.1z"/>
	<path fill="#EBECEC" d="M132.8,51.4c-0.2-3.2-1.4-4.1-5.3-4.1c-6.9,0-7.8,0.4-8,4.1c-0.1,1.6,0,3.2,0,4.7c-0.1,2.9-0.8,4.6-2.4,5.5
		c0,0,0,0,0,0c-0.1,0.1-0.2,0.1-0.3,0.1c-1,0.4-2.3,0.6-3.9,0.7c-1.6,0-2.9-0.2-3.9-0.7c-0.1,0-0.2-0.1-0.3-0.1c0,0,0,0,0,0
		c-1.6-0.9-2.3-2.7-2.4-5.5c-0.1-1.6,0.1-3.2,0-4.7c-0.2-3.6-1.1-4.1-8-4.1c-3.9,0-5.1,0.9-5.3,4.1c-0.1,1.1,0,2.3,0,3.4
		c0,7.6,0.1,7.7,6.9,7.7c0.4,0,0.8,0,1.2,0c2.5,0,3.9,0.7,4.6,2.5c0,0,0,0.1,0,0.1c0.3,0.9,0.5,2.1,0.5,3.6c0,1.2,0,2.2,0.1,3.1
		c0,0.1,0,0.1,0,0.2c0,1.8,0.2,3.1,0.6,4c0.7,1.7,2.4,1.9,6.1,1.9c3.7,0,5.4-0.2,6.1-1.9c0.4-0.9,0.6-2.2,0.6-4c0-0.1,0-0.1,0-0.2
		c0-0.9,0.1-1.9,0.1-3.1c0-1.5,0.2-2.7,0.5-3.6c0,0,0-0.1,0-0.1c0.7-1.7,2.2-2.4,4.6-2.5c0.4,0,0.8,0,1.2,0c6.7,0,6.9-0.2,6.9-7.7
		C132.8,53.7,132.9,52.5,132.8,51.4z"/>
	<path fill="#EBECEC" d="M1.9,82.5c0,7.6,0.1,7.7,6.9,7.7c0.4,0,6.3-0.6,6.3,6.4c0,1.6-0.1,3.2,0,4.7c0.1,2.4,0.6,3.4,2.9,3.8
		c1,0.2,2.2,0.3,4,0.2c0,0,0,0,0,0c0.3,0,0.7,0,1.1,0c3.9,0,5.1-0.9,5.3-4.1c0.1-1.1,0-2.3,0-3.4c0-7.6-0.1-7.7-6.9-7.7
		c-5.5,0-6.2-3.6-6.3-6.4c-0.1-1.6,0.1-3.2,0-4.7c-0.1-2.4-0.6-3.4-2.9-3.8c-1-0.2-2.2-0.3-4-0.2c0,0,0,0,0,0c-0.3,0-0.7,0-1.1,0
		c-3.9,0-5.1,0.9-5.3,4.1C1.9,80.3,2,81.4,1.9,82.5z"/>
	<path fill="#EBECEC" d="M148.1,1.9c-7.6,0-7.7,0.1-7.7,6.9c0,0.4,0.6,6.3-6.4,6.3c-1.6,0-3.2-0.1-4.7,0c-2.4,0.1-3.4,0.6-3.8,2.9
		c-0.2,1-0.3,2.2-0.2,4c0,0,0,0,0,0c0,0.3,0,0.7,0,1.1c0,3.9,0.9,5.1,4.1,5.3c1.1,0.1,2.3,0,3.4,0c7.6,0,7.7-0.1,7.7-6.9
		c0-5.5,3.6-6.2,6.4-6.3c1.6-0.1,3.2,0.1,4.7,0c2.4-0.1,3.4-0.6,3.8-2.9c0.2-1,0.3-2.2,0.2-4c0,0,0,0,0,0c0-0.3,0-0.7,0-1.1
		c0-3.9-0.9-5.1-4.1-5.3C150.3,1.9,149.2,2,148.1,1.9z"/>
	<path fill="#EBECEC" d="M20.4,53.7C20.4,53.7,20.4,53.7,20.4,53.7c-0.4,0-0.7,0-1.1,0c-1.1,0.1-1.9,0.2-2.5,0.6
		c-1.2,0.6-1.4,2-1.4,4.8c0,0,0,0,0,0c0,0.4,0,0.7,0,1.2c0,0,0,0,0,0c0,0.3,0,0.7,0,1c0,3.8,0.9,4.9,3.9,5.1c1.1,0.1,2.1,0,3.2,0
		c0.9,0,1.7,0,2.4,0c0,0,0,0,0,0c0.4,0,0.7,0,1.1,0c1.1-0.1,1.9-0.2,2.5-0.6c1.2-0.6,1.4-2,1.4-4.8l0,0c0-0.4,0-0.7,0-1.2
		c0,0,0,0,0,0c0-0.3,0-0.7,0-1c0-3.8-0.9-4.9-3.9-5.1c-1.1-0.1-2.1,0-3.2,0C21.9,53.7,21.1,53.7,20.4,53.7z"/>
	<path fill="#EBECEC" d="M50.4,116.5C50.4,116.5,50.4,116.5,50.4,116.5c-0.4,0-0.7,0-1.1,0c-1.1,0.1-1.9,0.2-2.5,0.6
		c-1.2,0.6-1.4,2-1.4,4.8l0,0c0,0.4,0,0.7,0,1.2c0,0,0,0,0,0c0,0.3,0,0.7,0,1c0,3.8,0.9,4.9,3.9,5.1c1.1,0.1,2.1,0,3.2,0
		c0.9,0,1.7,0,2.4,0c0,0,0,0,0,0c0.4,0,0.7,0,1.1,0c1.1-0.1,1.9-0.2,2.5-0.6c1.2-0.6,1.4-2,1.4-4.8l0,0c0-0.4,0-0.7,0-1.2
		c0,0,0,0,0,0c0-0.3,0-0.7,0-1c0-3.8-0.9-4.9-3.9-5.1c-1.1-0.1-2.1,0-3.2,0C51.9,116.5,51.1,116.5,50.4,116.5z"/>
	<path fill="#EBECEC" d="M160.5,41C160.5,41,160.5,41,160.5,41c-0.4,0-0.7,0-1.1,0c-1.1,0.1-1.9,0.2-2.5,0.6c-1.2,0.6-1.4,2-1.4,4.8
		c0,0,0,0,0,0c0,0.4,0,0.7,0,1.2c0,0,0,0,0,0c0,0.3,0,0.7,0,1c0,3.8,0.9,4.9,3.9,5.1c1.1,0.1,2.1,0,3.2,0c0.9,0,1.7,0,2.4,0
		c0,0,0,0,0,0c0.4,0,0.7,0,1.1,0c1.1-0.1,1.9-0.2,2.5-0.6c1.2-0.6,1.4-2,1.4-4.8c0,0,0,0,0,0c0-0.4,0-0.7,0-1.2c0,0,0,0,0,0
		c0-0.3,0-0.7,0-1c0-3.8-0.9-4.9-3.9-5.1c-1.1-0.1-2.1,0-3.2,0C162,41,161.2,41,160.5,41z"/>
</g>
</svg>
