<?xml version="1.0" encoding="utf-8"?>
<!-- Generator: Adobe Illustrator 17.1.0, SVG Export Plug-In . SVG Version: 6.00 Build 0)  -->
<!DOCTYPE svg PUBLIC "-//W3C//DTD SVG 1.1//EN" "http://www.w3.org/Graphics/SVG/1.1/DTD/svg11.dtd">
<svg version="1.1" id="Layer_1" xmlns="http://www.w3.org/2000/svg" xmlns:xlink="http://www.w3.org/1999/xlink" x="0px" y="0px"
	 viewBox="0 0 214.4 156.6" enable-background="new 0 0 214.4 156.6" xml:space="preserve">
<g>
	<path fill="#EBECEC" d="M121.5,150.6c0.1-1.6,0-3.2,0-4.7c0.1-2.9,0.8-4.6,2.4-5.5c0,0,0,0,0,0c0.1-0.1,0.2-0.1,0.3-0.1
		c0.7-0.3,1.6-0.5,2.6-0.6c0.8,0,1.6,0.1,2.6,0.1c0.6,0,1.1,0.1,1.6,0.1c0.4,0.1,0.8,0.2,1.1,0.4c0.1,0,0.2,0.1,0.3,0.1c0,0,0,0,0,0
		c1.6,0.9,2.3,2.6,2.4,5.2c0,0.4,0,0.9,0,1.3c0,0.9,0,1.7,0,2.4c0,0.5,0,0.9,0,1.4c0.1,1,0.2,1.7,0.4,2.3c0.6,1.5,2,1.7,5.1,1.8
		c0.7,0,1.5,0,2.5,0c0.1,0,0.1,0,0.2,0c0.5,0,1.1,0,1.6,0c1.2-0.1,2-0.4,2.6-1.1c0,0,0,0,0,0c0,0,0,0,0,0c0.6-0.6,0.9-1.6,0.9-2.9
		c0-0.6,0-1.2,0-1.8c0-0.1,0-0.1,0-0.2c0-1.1,0-2,0-2.8c0-3.5-0.2-5.1-1.6-5.8c-0.5-0.3-1.2-0.4-2-0.5c-0.4,0-0.8,0-1.2,0
		c-0.6,0-1.3,0-2.1,0c-0.4,0-0.8,0-1.2,0c-2.4-0.2-3.8-1-4.6-2.7c0,0,0,0,0,0c0-0.1-0.1-0.2-0.1-0.3c-0.1-0.4-0.2-0.8-0.3-1.3
		c-0.1-0.5-0.1-1.1-0.1-1.8c0-1.1,0-2.1-0.1-2.9c0.1-1.2,0.2-2.1,0.5-2.9c0-0.1,0.1-0.2,0.1-0.3c0,0,0,0,0,0
		c0.8-1.8,2.4-2.7,4.9-2.8c1.4-0.1,2.8,0.1,4.2,0c3.2-0.2,3.6-1.3,3.6-9.1c0-4.5-0.8-5.8-3.6-6c-1-0.1-2,0-3,0
		c-6.7,0-6.8,0.2-6.8,7.8c0,0.5,0,0.9,0,1.4c0,2.8-0.7,4.4-2.2,5.3c0,0-0.1,0-0.1,0c-0.8,0.4-1.8,0.6-3.1,0.6c-0.2,0-0.4,0-0.5,0
		c-0.2,0-0.5,0-0.7,0c-3.2,0-4.9,0.1-5.7,1.2c-1,1-1.1,2.9-1.1,6.5c0,0.3,0,0.5,0,0.8c0,0.2,0,0.4,0,0.6c0,1.5-0.2,2.7-0.5,3.6
		c0,0,0,0.1,0,0.1c-0.7,1.7-2.2,2.4-4.6,2.5c-0.4,0-0.8,0-1.2,0c-6.7,0-6.9,0.2-6.9,7.7c0,1.1-0.1,2.3,0,3.4
		c0.2,3.2,1.4,4.1,5.3,4.1C120.4,154.7,121.3,154.3,121.5,150.6z"/>
	<path fill="#EBECEC" d="M214.4,144.2c0-3.1-0.2-4.5-1.8-5.1c-0.6-0.3-1.3-0.4-2.3-0.4c-0.5,0-0.9,0-1.4,0c-0.7,0-1.5,0-2.4,0
		c-0.4,0-0.9,0-1.3,0c-2.7-0.1-4.3-0.9-5.2-2.4c0,0,0,0,0,0c-0.1-0.1-0.1-0.2-0.1-0.3c-0.1-0.3-0.3-0.7-0.3-1.1
		c-0.1-0.5-0.1-1-0.2-1.6c0-0.2,0-0.4,0-0.5c0-0.2,0-0.5,0-0.7c0-0.2,0-0.5,0-0.7c0-0.2,0-0.4,0-0.6c0-0.6,0.1-1.1,0.1-1.6
		c0.1-0.4,0.2-0.8,0.4-1.1c0-0.1,0.1-0.2,0.1-0.3c0,0,0,0,0,0c0.9-1.6,2.6-2.3,5.2-2.4c0.4,0,0.9,0,1.3,0c0.9,0,1.7,0,2.4,0
		c0.5,0,0.9,0,1.4,0c1-0.1,1.7-0.2,2.3-0.4c1.5-0.6,1.7-2,1.8-5.1c0-0.7,0-1.5,0-2.5c0-0.1,0-0.1,0-0.2c0-0.5,0-1.1,0-1.6
		c-0.1-1.2-0.4-2-1.1-2.6c0,0,0,0,0,0c0,0,0,0,0,0c-0.6-0.6-1.6-0.9-2.9-0.9c-0.6,0-1.2,0-1.8,0c-0.1,0-0.1,0-0.2,0
		c-1.1,0-2,0-2.8,0c-3.5,0-5.1,0.2-5.8,1.6c-0.3,0.5-0.4,1.2-0.5,2c0,0.4,0,0.8,0,1.2c0,0.6,0,1.3,0,2.1c0,0.4,0,0.8,0,1.2
		c-0.2,2.4-1,3.8-2.7,4.6c0,0,0,0,0,0c-0.1,0-0.2,0.1-0.3,0.1c-0.4,0.1-0.8,0.2-1.3,0.3c-0.5,0.1-1.1,0.1-1.8,0.1
		c-0.2,0-0.4,0-0.6,0c-0.3,0-0.5,0-0.8,0c-0.3,0-0.5,0-0.8,0c-0.2,0-0.4,0-0.6,0c-0.7,0-1.3-0.1-1.8-0.1c-0.4-0.1-0.8-0.2-1.2-0.3
		c-0.1,0-0.2-0.1-0.3-0.1c0,0,0,0,0,0c-1.8-0.8-2.6-2.3-2.7-4.6c0-0.4,0-0.8,0-1.2c0-0.8,0-1.5,0-2.1c0-0.4,0-0.8,0-1.2
		c-0.1-0.9-0.2-1.5-0.5-2c-0.7-1.3-2.2-1.5-5.8-1.6c-0.8,0-1.7,0-2.8,0c-0.1,0-0.1,0-0.2,0c-0.6,0-1.2,0-1.8,0
		c-1.4,0.1-2.3,0.3-2.9,0.9c0,0,0,0,0,0c0,0,0,0,0,0c-0.7,0.6-1,1.4-1.1,2.6c0,0.5,0,1.1,0,1.6c0,0.1,0,0.1,0,0.2c0,0.9,0,1.7,0,2.5
		c0,3.1,0.2,4.5,1.8,5.1c0.6,0.3,1.3,0.4,2.3,0.4c0.5,0,0.9,0,1.4,0c0.7,0,1.5,0,2.4,0c0.4,0,0.9,0,1.3,0c2.7,0.1,4.3,0.9,5.2,2.4
		c0,0,0,0,0,0c0.1,0.1,0.1,0.2,0.1,0.3c0.1,0.3,0.3,0.7,0.3,1.1c0.1,0.5,0.1,1,0.2,1.6c0,0.2,0,0.4,0,0.5c0,0.2,0,0.5,0,0.7
		c0,0.2,0,0.5,0,0.7c0,0.2,0,0.4,0,0.6c0,0.6-0.1,1.1-0.1,1.6c-0.1,0.4-0.2,0.8-0.4,1.1c0,0.1-0.1,0.2-0.1,0.3c0,0,0,0,0,0
		c-0.9,1.6-2.6,2.3-5.2,2.4c-0.4,0-0.9,0-1.3,0c-0.9,0-1.7,0-2.4,0c-0.5,0-0.9,0-1.4,0c-1,0.1-1.7,0.2-2.3,0.4
		c-1.5,0.6-1.7,2-1.8,5.1c0,0.7,0,1.5,0,2.5c0,0.1,0,0.1,0,0.2c0,0.5,0,1.1,0,1.6c0.1,1.2,0.4,2,1.1,2.6c0,0,0,0,0,0c0,0,0,0,0,0
		c0.6,0.6,1.6,0.9,2.9,0.9c0.6,0,1.2,0,1.8,0c0.1,0,0.1,0,0.2,0c1.1,0,2,0,2.8,0c3.5,0,5.1-0.2,5.8-1.6c0.3-0.5,0.4-1.2,0.5-2
		c0-0.4,0-0.8,0-1.2c0-0.6,0-1.3,0-2.1c0-0.4,0-0.8,0-1.2c0.2-2.4,1-3.8,2.7-4.6c0,0,0,0,0,0c0.1,0,0.2-0.1,0.3-0.1
		c0.4-0.1,0.8-0.2,1.3-0.3c0.5-0.1,1.1-0.1,1.8-0.1c0.2,0,0.4,0,0.6,0c0.3,0,0.5,0,0.8,0c0.3,0,0.5,0,0.8,0c0.2,0,0.4,0,0.6,0
		c0.7,0,1.3,0.1,1.8,0.1c0.4,0.1,0.8,0.2,1.2,0.3c0.1,0,0.2,0.1,0.3,0.1c0,0,0,0,0,0c1.8,0.8,2.6,2.3,2.7,4.6c0,0.4,0,0.8,0,1.2
		c0,0.8,0,1.5,0,2.1c0,0.4,0,0.8,0,1.2c0.1,0.9,0.2,1.5,0.5,2c0.7,1.3,2.2,1.5,5.8,1.6c0.8,0,1.7,0,2.8,0c0.1,0,0.1,0,0.2,0
		c0.6,0,1.2,0,1.8,0c1.4-0.1,2.3-0.3,2.9-0.9c0,0,0,0,0,0c0,0,0,0,0,0c0.7-0.6,1-1.4,1.1-2.6c0-0.5,0-1.1,0-1.6c0-0.1,0-0.1,0-0.2
		C214.4,145.8,214.4,144.9,214.4,144.2z"/>
	<path fill="#EBECEC" d="M210.4,40.1c3.2-0.2,4.1-1.4,4.1-5.3c0-6.9-0.4-7.8-4.1-8c-1.6-0.1-3.2,0-4.7,0c-2.9-0.1-4.6-0.8-5.5-2.4
		c0,0,0,0,0,0c-0.1-0.1-0.1-0.2-0.1-0.3c-0.4-1-0.6-2.3-0.7-3.9c0-1.6,0.2-2.9,0.7-3.9c0-0.1,0.1-0.2,0.1-0.3c0,0,0,0,0,0
		c0.9-1.6,2.7-2.3,5.5-2.4c1.6-0.1,3.2,0.1,4.7,0c3.6-0.2,4.1-1.1,4.1-8c0-3.9-0.9-5.1-4.1-5.3c-1.1-0.1-2.3,0-3.4,0
		c-7.6,0-7.7,0.1-7.7,6.9c0,0.4,0,0.8,0,1.2c0,2.5-0.7,3.9-2.5,4.6c0,0-0.1,0-0.1,0c-0.9,0.3-2.1,0.5-3.6,0.5c-1.2,0-2.2,0-3.1,0.1
		c-0.1,0-0.1,0-0.2,0c-1.8,0-3.1,0.2-4,0.6c-1.7,0.7-1.9,2.4-1.9,6.1c0,3.7,0.2,5.4,1.9,6.1c0.9,0.4,2.2,0.6,4,0.6
		c0.1,0,0.1,0,0.2,0c0.9,0,1.9,0.1,3.1,0.1c1.5,0,2.7,0.2,3.6,0.5c0,0,0.1,0,0.1,0c1.7,0.7,2.4,2.2,2.5,4.6c0,0.4,0,0.8,0,1.2
		c0,6.7,0.2,6.9,7.7,6.9C208.1,40.1,209.2,40.2,210.4,40.1z"/>
	<path fill="#EBECEC" d="M139.6,51.1c-3.2,0.2-4.1,1.4-4.1,5.3c0,6.9,0.4,7.8,4.1,8c1.6,0.1,3.2,0,4.7,0c2.9,0.1,4.6,0.8,5.5,2.4
		c0,0,0,0,0,0c0.1,0.1,0.1,0.2,0.1,0.3c0.4,1,0.6,2.3,0.7,3.9c0,1.6-0.2,2.9-0.7,3.9c0,0.1-0.1,0.2-0.1,0.3c0,0,0,0,0,0
		c-0.9,1.6-2.7,2.3-5.5,2.4c-1.6,0.1-3.2-0.1-4.7,0c-3.6,0.2-4.1,1.1-4.1,8c0,3.9,0.9,5.1,4.1,5.3c1.1,0.1,2.3,0,3.4,0
		c7.6,0,7.7-0.1,7.7-6.9c0-0.4,0-0.8,0-1.2c0-2.5,0.7-3.9,2.5-4.6c0,0,0.1,0,0.1,0c0.9-0.3,2.1-0.5,3.6-0.5c1.2,0,2.2,0,3.1-0.1
		c0.1,0,0.1,0,0.2,0c1.8,0,3.1-0.2,4-0.6c1.7-0.7,1.9-2.4,1.9-6.1c0-3.7-0.2-5.4-1.9-6.1c-0.9-0.4-2.2-0.6-4-0.6c-0.1,0-0.1,0-0.2,0
		c-0.9,0-1.9-0.1-3.1-0.1c-1.5,0-2.7-0.2-3.6-0.5c0,0-0.1,0-0.1,0c-1.7-0.7-2.4-2.2-2.5-4.6c0-0.4,0-0.8,0-1.2
		c0-6.7-0.2-6.9-7.7-6.9C141.8,51.1,140.7,51.1,139.6,51.1z"/>
	<path fill="#EBECEC" d="M0,152.5c0.2,3.2,1.4,4.1,5.3,4.1c6.9,0,7.8-0.4,8-4.1c0.1-1.6,0-3.2,0-4.7c0.1-2.9,0.8-4.6,2.4-5.5
		c0,0,0,0,0,0c0.1-0.1,0.2-0.1,0.3-0.1c1-0.4,2.3-0.6,3.9-0.7c1.6,0,2.9,0.2,3.9,0.7c0.1,0,0.2,0.1,0.3,0.1c0,0,0,0,0,0
		c1.6,0.9,2.3,2.7,2.4,5.5c0.1,1.6-0.1,3.2,0,4.7c0.2,3.6,1.1,4.1,8,4.1c3.9,0,5.1-0.9,5.3-4.1c0.1-1.1,0-2.3,0-3.4
		c0-7.6-0.1-7.7-6.9-7.7c-0.4,0-0.8,0-1.2,0c-2.5,0-3.9-0.7-4.6-2.5c0,0,0-0.1,0-0.1c-0.3-0.9-0.5-2.1-0.5-3.6c0-1.2,0-2.2-0.1-3.1
		c0-0.1,0-0.1,0-0.2c0-1.8-0.2-3.1-0.6-4c-0.7-1.7-2.4-1.9-6.1-1.9c-3.7,0-5.4,0.2-6.1,1.9c-0.4,0.9-0.6,2.2-0.6,4
		c0,0.1,0,0.1,0,0.2c0,0.9-0.1,1.9-0.1,3.1c0,1.5-0.2,2.7-0.5,3.6c0,0,0,0.1,0,0.1c-0.7,1.7-2.2,2.4-4.6,2.5c-0.4,0-0.8,0-1.2,0
		c-6.7,0-6.9,0.2-6.9,7.7C0,150.3,0,151.4,0,152.5z"/>
	<path fill="#EBECEC" d="M81.6,105.2c0.2,3.2,1.4,4.1,5.3,4.1c6.9,0,7.8-0.4,8-4.1c0.1-1.6,0-3.2,0-4.7c0.1-2.9,0.8-4.6,2.4-5.5
		c0,0,0,0,0,0c0.1-0.1,0.2-0.1,0.3-0.1c1-0.4,2.3-0.6,3.9-0.7c1.6,0,2.9,0.2,3.9,0.7c0.1,0,0.2,0.1,0.3,0.1c0,0,0,0,0,0
		c1.6,0.9,2.3,2.7,2.4,5.5c0.1,1.6-0.1,3.2,0,4.7c0.2,3.6,1.1,4.1,8,4.1c3.9,0,5.1-0.9,5.3-4.1c0.1-1.1,0-2.3,0-3.4
		c0-7.6-0.1-7.7-6.9-7.7c-0.4,0-0.8,0-1.2,0c-2.5,0-3.9-0.7-4.6-2.5c0,0,0-0.1,0-0.1c-0.3-0.9-0.5-2.1-0.5-3.6c0-1.2,0-2.2-0.1-3.1
		c0-0.1,0-0.1,0-0.2c0-1.8-0.2-3.1-0.6-4c-0.7-1.7-2.4-1.9-6.1-1.9c-3.7,0-5.4,0.2-6.1,1.9c-0.4,0.9-0.6,2.2-0.6,4
		c0,0.1,0,0.1,0,0.2c0,0.9-0.1,1.9-0.1,3.1c0,1.5-0.2,2.7-0.5,3.6c0,0,0,0.1,0,0.1c-0.7,1.7-2.2,2.4-4.6,2.5c-0.4,0-0.8,0-1.2,0
		c-6.7,0-6.9,0.2-6.9,7.7C81.6,102.9,81.6,104.1,81.6,105.2z"/>
	<path fill="#EBECEC" d="M212.5,74.1c0-7.6-0.1-7.7-6.9-7.7c-0.4,0-6.3,0.6-6.3-6.4c0-1.6,0.1-3.2,0-4.7c-0.1-2.4-0.6-3.4-2.9-3.8
		c-1-0.2-2.2-0.3-4-0.2c0,0,0,0,0,0c-0.3,0-0.7,0-1.1,0c-3.9,0-5.1,0.9-5.3,4.1c-0.1,1.1,0,2.3,0,3.4c0,7.6,0.1,7.7,6.9,7.7
		c5.5,0,6.2,3.6,6.3,6.4c0.1,1.6-0.1,3.2,0,4.7c0.1,2.4,0.6,3.4,2.9,3.8c1,0.2,2.2,0.3,4,0.2c0,0,0,0,0,0c0.3,0,0.7,0,1.1,0
		c3.9,0,5.1-0.9,5.3-4.1C212.5,76.3,212.5,75.2,212.5,74.1z"/>
	<path fill="#EBECEC" d="M66.3,154.7c7.6,0,7.7-0.1,7.7-6.9c0-0.4-0.6-6.3,6.4-6.3c1.6,0,3.2,0.1,4.7,0c2.4-0.1,3.4-0.6,3.8-2.9
		c0.2-1,0.3-2.2,0.2-4c0,0,0,0,0,0c0-0.3,0-0.7,0-1.1c0-3.9-0.9-5.1-4.1-5.3c-1.1-0.1-2.3,0-3.4,0c-7.6,0-7.7,0.1-7.7,6.9
		c0,5.5-3.6,6.2-6.4,6.3c-1.6,0.1-3.2-0.1-4.7,0c-2.4,0.1-3.4,0.6-3.8,2.9c-0.2,1-0.3,2.2-0.2,4c0,0,0,0,0,0c0,0.3,0,0.7,0,1.1
		c0,3.9,0.9,5.1,4.1,5.3C64.1,154.7,65.2,154.7,66.3,154.7z"/>
	<path fill="#EBECEC" d="M194,102.9C194,102.9,194,103,194,102.9c0.4,0,0.7,0,1.1,0c1.1-0.1,1.9-0.2,2.5-0.6c1.2-0.6,1.4-2,1.4-4.8
		c0,0,0,0,0,0c0-0.4,0-0.7,0-1.2c0,0,0,0,0,0c0-0.3,0-0.7,0-1c0-3.8-0.9-4.9-3.9-5.1c-1.1-0.1-2.1,0-3.2,0c-0.9,0-1.7,0-2.4,0
		c0,0,0,0,0,0c-0.4,0-0.7,0-1.1,0c-1.1,0.1-1.9,0.2-2.5,0.6c-1.2,0.6-1.4,2-1.4,4.8l0,0c0,0.4,0,0.7,0,1.2c0,0,0,0,0,0
		c0,0.3,0,0.7,0,1c0,3.8,0.9,4.9,3.9,5.1c1.1,0.1,2.1,0,3.2,0C192.5,103,193.3,102.9,194,102.9z"/>
	<path fill="#EBECEC" d="M164,40.1C164.1,40.1,164.1,40.1,164,40.1c0.4,0,0.7,0,1.1,0c1.1-0.1,1.9-0.2,2.5-0.6
		c1.2-0.6,1.4-2,1.4-4.8c0,0,0,0,0,0c0-0.4,0-0.7,0-1.2c0,0,0,0,0,0c0-0.3,0-0.7,0-1c0-3.8-0.9-4.9-3.9-5.1c-1.1-0.1-2.1,0-3.2,0
		c-0.9,0-1.7,0-2.4,0c0,0,0,0,0,0c-0.4,0-0.7,0-1.1,0c-1.1,0.1-1.9,0.2-2.5,0.6c-1.2,0.6-1.4,2-1.4,4.8l0,0c0,0.4,0,0.7,0,1.2
		c0,0,0,0,0,0c0,0.3,0,0.7,0,1c0,3.8,0.9,4.9,3.9,5.1c1.1,0.1,2.1,0,3.2,0C162.5,40.1,163.3,40.1,164,40.1z"/>
	<path fill="#EBECEC" d="M53.9,115.6C54,115.6,54,115.6,53.9,115.6c0.4,0,0.7,0,1.1,0c1.1-0.1,1.9-0.2,2.5-0.6
		c1.2-0.6,1.4-2,1.4-4.8l0,0c0-0.4,0-0.7,0-1.2c0,0,0,0,0,0c0-0.3,0-0.7,0-1c0-3.8-0.9-4.9-3.9-5.1c-1.1-0.1-2.1,0-3.2,0
		c-0.9,0-1.7,0-2.4,0c0,0,0,0,0,0c-0.4,0-0.7,0-1.1,0c-1.1,0.1-1.9,0.2-2.5,0.6c-1.2,0.6-1.4,2-1.4,4.8c0,0,0,0,0,0
		c0,0.4,0,0.7,0,1.2c0,0,0,0,0,0c0,0.3,0,0.7,0,1c0,3.8,0.9,4.9,3.9,5.1c1.1,0.1,2.1,0,3.2,0C52.4,115.6,53.2,115.6,53.9,115.6z"/>
</g>
</svg>
