<?xml version="1.0" encoding="utf-8"?>
<!-- Generator: Adobe Illustrator 17.1.0, SVG Export Plug-In . SVG Version: 6.00 Build 0)  -->
<!DOCTYPE svg PUBLIC "-//W3C//DTD SVG 1.1//EN" "http://www.w3.org/Graphics/SVG/1.1/DTD/svg11.dtd">
<svg version="1.1" id="Layer_1" xmlns="http://www.w3.org/2000/svg" xmlns:xlink="http://www.w3.org/1999/xlink" x="0px" y="0px"
	 viewBox="131 0 246 30" enable-background="new 131 0 246 30" xml:space="preserve">
<g>
	<path fill="#078DD0" d="M147.2,23.2c0-4.1-0.1-4.2-4.2-4.2c-0.2,0-3.8,0.3-3.8-3.5c0-0.8,0-1.7,0-2.5c-0.1-1.3-0.4-1.8-1.8-2.1
		c-0.6-0.1-1.4-0.1-2.4-0.1c0,0,0,0,0,0c-0.2,0-0.4,0-0.7,0c-2.4,0-3.1,0.5-3.2,2.2c0,0.6,0,1.2,0,1.8c0,4.1,0.1,4.2,4.2,4.2
		c3.4,0,3.8,1.9,3.8,3.5c0,0.8,0,1.7,0,2.5c0.1,1.3,0.4,1.8,1.8,2.1c0.6,0.1,1.4,0.1,2.4,0.1c0,0,0,0,0,0c0.2,0,0.4,0,0.7,0
		c2.4,0,3.1-0.5,3.2-2.2C147.2,24.4,147.2,23.8,147.2,23.2z"/>
	<path fill="#04346E" d="M155.2,15.2c0-4.1-0.1-4.2-4.2-4.2c-0.2,0-3.8,0.3-3.8-3.5c0-0.8,0-1.7,0-2.5c-0.1-1.3-0.4-1.8-1.8-2.1
		c-0.6-0.1-1.4-0.1-2.4-0.1c0,0,0,0,0,0c-0.2,0-0.4,0-0.7,0c-2.4,0-3.1,0.5-3.2,2.2c0,0.6,0,1.2,0,1.8c0,4.1,0.1,4.2,4.2,4.2
		c3.4,0,3.8,1.9,3.8,3.5c0,0.8,0,1.7,0,2.5c0.1,1.3,0.4,1.8,1.8,2.1c0.6,0.1,1.4,0.1,2.4,0.1c0,0,0,0,0,0c0.2,0,0.4,0,0.7,0
		c2.4,0,3.1-0.5,3.2-2.2C155.2,16.4,155.2,15.8,155.2,15.2z"/>
	<path fill="#04346E" d="M208.9,24.3c-0.1,0.1-0.1,0.1-0.1,0.1c-0.1,2-0.8,2.5-2.8,2.1c-0.7-0.2-1-0.7-1-1.4c0-2.1,0-4.2,0-6.3
		c0-4.6,0-9.2,0-13.8c0-1.4,0.3-1.7,1.7-1.7c2.2,0,2.4,0.1,2.4,2.3c0,1.9,0,3.8,0,5.6c0,0.1-0.1,0.3,0.1,0.4c0.2,0,0.3-0.2,0.4-0.3
		c3.1-3.7,9.8-2.3,11.4,3c1,3.3,0.9,6.5-1.1,9.4c-1.7,2.6-5,3.7-7.8,2.8C211,26.4,210.3,25.9,208.9,24.3z M217.3,18.2
		c0-1-0.1-1.9-0.5-2.8c-0.7-1.5-1.8-2.4-3.5-2.5c-1.8-0.1-3.1,0.7-3.8,2.3c-0.9,2-0.8,4,0.1,6c0.7,1.5,1.9,2.2,3.6,2.1
		c1.6-0.1,2.7-0.9,3.4-2.3C217.2,20.2,217.4,19.2,217.3,18.2z"/>
	<path fill="#04346E" d="M297.8,2.8c1.6,0.1,3.5,0.5,5.1,1.5c1.1,0.7,1.2,1.2,0.6,2.4c-0.1,0.2-0.2,0.4-0.4,0.6
		c-0.6,1-1.1,1.1-2.1,0.5c-1.6-1-3.4-1.5-5.3-1c-1,0.3-1.8,0.8-2.1,2c-0.2,1.2,0.2,2,1.2,2.7c1,0.8,2.3,1.2,3.4,1.7
		c1.2,0.6,2.5,1.1,3.6,1.9c1.9,1.4,2.8,3.3,2.5,5.7c-0.3,2.5-1.5,4.4-3.8,5.4c-3.9,1.6-7.5,0.7-10.9-1.5c-0.6-0.4-0.7-1-0.4-1.6
		c0.3-0.5,0.6-1.1,1-1.6c0.5-0.6,1-0.6,1.9,0c1.5,1.1,3.2,1.6,5.1,1.5c1.9-0.1,3-1.3,2.9-2.9c-0.1-0.8-0.5-1.4-1.1-1.9
		c-0.9-0.8-2.1-1.2-3.1-1.7c-1.1-0.5-2.2-1-3.2-1.6c-2.4-1.4-3.6-3.4-3.3-6.1c0.3-2.9,2-4.6,4.6-5.5C295.3,3,296.4,2.8,297.8,2.8z"
		/>
	<path fill="#04346E" d="M175,27c-2.5-0.1-4.9-0.8-6.9-2.3c-0.7-0.5-0.8-1-0.4-1.8c0,0,0.1-0.1,0.1-0.1c1.1-1.6,1.2-2.3,3.3-0.8
		c1.6,1.1,3.5,1.4,5.4,1c1-0.2,1.7-0.8,2-1.8c0.3-1,0-1.9-0.8-2.7c-1-0.9-2.3-1.4-3.5-2c-1.1-0.5-2.3-1-3.3-1.7
		c-2.1-1.3-3.2-3.1-3.1-5.6c0.2-2.6,1.4-4.4,3.7-5.5c3.3-1.5,6.6-1.1,9.7,0.7c1.1,0.6,1.2,1.2,0.6,2.3c-0.1,0.2-0.2,0.3-0.3,0.5
		c-0.7,1.2-1.1,1.3-2.3,0.6c-1.6-1-3.3-1.4-5.2-0.9c-1.1,0.3-1.9,0.9-2.1,2c-0.2,1.2,0.3,2,1.2,2.7c1.3,0.9,2.7,1.4,4.1,2
		c1,0.5,2.1,1,3,1.6c2,1.5,2.7,3.5,2.4,6c-0.4,2.4-1.7,4.1-4,5.1C177.5,26.8,176.3,27,175,27z"/>
	<path fill="#04346E" d="M306.5,18.2c0-4.6,3.5-8.8,9.2-8.8c5.5,0.1,9.3,4,9.1,9.2c-0.2,4.9-4.3,8.6-9.6,8.4
		C310.2,26.8,306.4,22.9,306.5,18.2z M315.6,23.4c2.9,0,5-2.2,5-5.2c0-3-2.1-5.2-4.9-5.3c-2.9,0-5,2.2-5.1,5.3
		C310.6,21.2,312.8,23.4,315.6,23.4z"/>
	<path fill="#04346E" d="M265.5,24c-0.4,0.5-0.7,0.8-1.1,1.2c-2.1,2.1-5.3,2.4-7.7,0.7c-1.5-1.1-2.2-2.6-1.9-4.5
		c0.2-1.9,1.3-3.1,3-3.9c2-0.9,4.1-1.1,6.3-1.2c1.2,0,1.2,0,1-1.3c-0.2-1.3-1.2-2.1-2.7-2.2c-1.3-0.1-2.5,0.2-3.6,0.8
		c-1.2,0.6-1.6,0.4-2.3-0.9c-0.5-1.1-0.4-1.6,0.8-2.2c2.3-1.2,4.7-1.6,7.3-1c2.6,0.6,4.2,2.3,4.6,4.9c0.2,1.2,0.1,2.3,0.1,3.5
		c0,2.3,0,4.7,0,7c0,1.1-0.4,1.5-1.5,1.6c-0.2,0-0.5,0-0.7,0c-1.2,0-1.5-0.4-1.5-1.6C265.5,24.8,265.5,24.5,265.5,24z M261.3,23.9
		c2.6,0.1,4-2.8,3.9-4.8c0-0.3-0.2-0.3-0.4-0.3c-1.5,0-3,0.1-4.5,0.7c-1.2,0.5-1.7,1.5-1.5,2.6C259.1,23.3,260,23.9,261.3,23.9z"/>
	<path fill="#04346E" d="M362.9,24.2c-0.6,0.6-1.1,1.1-1.7,1.6c-2.2,1.9-5.9,1.6-7.9-0.5c-2.2-2.4-1.3-6.4,1.9-7.7
		c2.1-0.9,4.4-1.2,6.6-1.1c0.7,0,0.8-0.2,0.7-0.8c-0.2-2.2-2-2.9-4.2-2.6c-0.8,0.1-1.6,0.5-2.4,0.8c-1.1,0.5-1.4,0.3-2.1-1
		c-0.5-1-0.3-1.5,0.6-2c2.2-1.2,4.6-1.6,7.1-1.2c2.9,0.5,4.8,2.5,5,5.5c0.2,3.4,0.1,6.9,0.1,10.4c0,0.7-0.4,1.1-1,1.2
		c-0.2,0-0.4,0.1-0.6,0.1c-1.8,0-2.1-0.2-2.1-2C362.9,24.5,362.9,24.4,362.9,24.2z M361.1,18.9c-1,0.1-2.3,0.1-3.5,0.8
		c-1,0.5-1.5,1.6-1.3,2.6c0.3,1,1.1,1.7,2.3,1.7c2,0,3.6-1.4,4-3.7C362.8,18.9,362.8,18.8,361.1,18.9z"/>
	<path fill="#04346E" d="M196.9,23.7c-1.9,2.7-4.2,3.7-7.2,3.2c-2.1-0.4-3.5-1.7-4.1-3.8c-0.2-0.8-0.3-1.7-0.3-2.5c0-3,0-6,0-9
		c0-1.4,0.4-1.7,1.8-1.7c2.2,0,2.4,0.1,2.4,2.4c0,2.7,0,5.3,0,8c0,2.4,1.4,3.5,3.7,2.9c1.5-0.4,2.5-1.4,3-2.8
		c0.4-0.9,0.5-1.8,0.5-2.7c0-2,0-4.1,0-6.1c0-1.2,0.4-1.6,1.6-1.6c2.5,0,2.5,0,2.5,2.5c0,4.2,0,8.3,0,12.5c0,1.3-0.4,1.6-1.7,1.6
		c-2.1,0-2.3-0.1-2.3-2.2C196.9,24.1,196.9,24,196.9,23.7z"/>
	<path fill="#04346E" d="M236,23.8c-0.9,1.5-2.2,2.5-3.9,3c-1.6,0.5-3.1,0.4-4.5-0.2c-2.1-0.9-2.9-2.7-3-4.8
		c-0.1-3.5-0.1-7-0.1-10.5c0-0.9,0.4-1.3,1.3-1.3c2.6-0.1,2.8,0.1,2.8,2.6c0,2.4,0,4.8,0,7.3c0,0.1,0,0.3,0,0.4
		c0,2.9,2.1,4.1,4.7,2.6c2-1.1,2.6-3.1,2.6-5.2c0.1-2,0-4,0-6c0-1.3,0.3-1.7,1.6-1.7c2.4,0,2.5,0.1,2.5,2.5c0,4.2,0,8.3,0,12.5
		c0,1.3-0.4,1.7-1.7,1.7c-2.1,0-2.3-0.1-2.2-2.3C236.1,24.1,236.2,24,236,23.8z"/>
	<path fill="#04346E" d="M326.8,18.2c0-5.7,5-9.3,10.3-8.6c1.4,0.2,2.8,0.6,4,1.4c1,0.6,1,1.2,0.3,2.3c-0.7,1.1-1.2,1.3-2.2,0.7
		c-2.7-1.6-5.8-1-7.3,1.3c-1.3,2-1.1,4.6,0.3,6.4c1.4,1.8,4,2.2,6.2,1.4c0.6-0.2,1.1-0.6,1.7-0.9c0.8-0.5,1.3-0.3,1.8,0.5
		c0.8,1.3,0.7,1.8-0.4,2.6c-3.1,2.2-8,2.2-11.1,0C328,23.8,326.8,21.2,326.8,18.2z"/>
	<path fill="#04346E" d="M245.1,17.7c0-1.2,0-4,0-4s-0.3-0.1-0.9-0.1c-1.3,0-1.4-0.6-1.4-2c0-1.2,0.4-1.6,1.6-1.5h0.8
		c0,0,0-2.4,0-3.3c0-1,0.2-1.5,1.8-1.5c1.9,0,2.2,0.1,2.2,2.5c0,0.8,0,2.3,0,2.3s1.6,0,2.3,0c1.1,0.1,1.5,0.5,1.5,1.7
		c0,1.1-0.2,1.7-1.3,1.7c-1.4,0-2.5,0-2.5,0s0,1.4,0,2.1c0,1.4,0,2.8,0,4.2c0,2.1,0.8,2.9,2.8,3.1c0.9,0.1,1.2,0.4,1.2,1.3
		c0.1,2.2-0.5,2.7-2.7,2.3c-3.7-0.7-5.4-2.7-5.4-6.5C245.1,19.4,245.1,18.6,245.1,17.7z"/>
	<path fill="#04346E" d="M370.5,13.5c0-2.8,0-5.6,0-8.4c0-1.4,0.3-1.7,1.7-1.7c2.3,0,2.4,0.1,2.4,2.4c0,5.1,0,10.1,0,15.2
		c0,0.4,0,0.8,0.1,1.2c0.1,0.5,0.4,0.9,1.1,1c0.8,0,1.1,0.5,1.1,1.3c0.1,2.1-0.4,2.5-2.5,2.2c-2.7-0.3-3.8-2.1-3.9-4.4
		C370.5,19.3,370.6,16.4,370.5,13.5C370.6,13.5,370.6,13.5,370.5,13.5z"/>
	<path fill="#04346E" d="M345.2,18.3c0-2.3,0-4.5,0-6.8c0-1.1,0.4-1.5,1.5-1.5c2.5,0,2.6,0,2.6,2.5c0,4.1,0,8.3,0,12.4
		c0,1.4-0.3,1.7-1.7,1.7c-2.2,0-2.3-0.1-2.3-2.3C345.2,22.3,345.2,20.3,345.2,18.3z"/>
	<path fill="#04346E" d="M273.2,18.3c0-2.3,0-4.5,0-6.8c0-1.2,0.4-1.5,1.5-1.5c2.5,0,2.6,0.1,2.6,2.5c0,4.1,0,8.2,0,12.3
		c0,1.5-0.3,1.8-1.8,1.8c-2.1,0-2.2-0.1-2.2-2.3C273.2,22.4,273.2,20.4,273.2,18.3z"/>
	<path fill="#04346E" d="M275.2,8.4c-0.2,0-0.5,0-0.7,0c-0.2,0-0.3,0-0.5-0.1c-0.8-0.3-1-1.1-0.8-2.6c0.1-0.7,0.5-1.1,1.3-1.1
		c0.2,0,0.4,0,0.7,0c2.2-0.2,2.3,0.6,2.1,2.8c-0.1,0.6-0.5,0.9-1.1,0.9C275.8,8.4,275.5,8.3,275.2,8.4
		C275.2,8.3,275.2,8.4,275.2,8.4z"/>
	<path fill="#04346E" d="M347.2,8.4c-0.2,0-0.5,0-0.7,0c-0.2,0-0.3,0-0.5-0.1c-0.8-0.3-1-1.1-0.8-2.6c0.1-0.7,0.5-1.1,1.3-1.1
		c0.2,0,0.4,0,0.7,0c2.2-0.2,2.3,0.6,2.1,2.8c-0.1,0.6-0.5,0.9-1.1,0.9C347.8,8.4,347.5,8.3,347.2,8.4
		C347.2,8.3,347.2,8.4,347.2,8.4z"/>
</g>
</svg>
