<?xml version="1.0" encoding="utf-8"?>
<!-- Generator: Adobe Illustrator 17.1.0, SVG Export Plug-In . SVG Version: 6.00 Build 0)  -->
<!DOCTYPE svg PUBLIC "-//W3C//DTD SVG 1.1//EN" "http://www.w3.org/Graphics/SVG/1.1/DTD/svg11.dtd">
<svg version="1.1" id="Layer_1" xmlns="http://www.w3.org/2000/svg" xmlns:xlink="http://www.w3.org/1999/xlink" x="0px" y="0px"
	 viewBox="0 0 163.1 20" enable-background="new 0 0 163.1 20" xml:space="preserve">
<g>
	<path fill="#19286E" d="M0,18.7l1.1-3.1c1.3,0.7,2.9,1.1,4.8,1.1c1.5,0,2.4-0.4,2.7-1.1c0.1-0.2,0.1-0.5,0.1-0.7
		c0-0.6-0.3-1.1-0.8-1.4c-0.5-0.4-1.3-0.7-2.2-1.1C4.7,12,4,11.7,3.4,11.5s-1.1-0.6-1.5-1C0.8,9.6,0.3,8.4,0.3,7
		c0-1.6,0.6-2.9,1.8-3.9c1.1-0.9,2.7-1.4,4.7-1.4c2,0,3.7,0.4,5.2,1.2L10.8,6c-1.2-0.6-2.4-1-3.5-1C6.2,5.1,5.4,5.2,5,5.5
		c-0.4,0.3-0.6,0.6-0.6,1c0,0.4,0.1,0.8,0.2,1C4.8,7.7,5,7.9,5.2,8.1c0.3,0.2,1,0.5,2,0.9s1.9,0.7,2.5,1c0.7,0.3,1.2,0.7,1.7,1.1
		c0.9,0.9,1.3,2.1,1.3,3.7s-0.6,2.9-1.7,3.8C9.9,19.6,8.2,20,5.9,20C3.4,20,1.5,19.6,0,18.7z"/>
	<path fill="#19286E" d="M15.4,13.8V6.3h3.8v7c0,1.2,0.2,2.1,0.5,2.6c0.3,0.5,0.9,0.8,1.8,0.8c0.5,0,1.1,0,1.7-0.1V6.3h3.8v12.9
		c-1.7,0.5-3.6,0.8-5.7,0.8c-3.1,0-5-1.2-5.5-3.7C15.5,15.5,15.4,14.7,15.4,13.8z"/>
	<path fill="#19286E" d="M30.5,19.2V0.6L34.3,0v6.6C35.1,6.3,36,6.1,37,6.1c1,0,1.8,0.2,2.5,0.5c0.7,0.3,1.3,0.8,1.8,1.4
		c1,1.3,1.5,2.9,1.5,5c0,2.1-0.6,3.8-1.8,5.1c-1.2,1.3-2.9,1.9-5.1,1.9C34,20,32.2,19.7,30.5,19.2z M34.3,16.7
		c0.5,0.1,1.1,0.1,1.6,0.1c1,0,1.8-0.4,2.3-1.1s0.8-1.7,0.8-2.8c0-2.4-0.9-3.7-2.7-3.7c-0.8,0-1.5,0.2-2.1,0.5V16.7z"/>
	<path fill="#19286E" d="M45.6,13.8V6.3h3.8v7c0,1.2,0.2,2.1,0.5,2.6c0.3,0.5,0.9,0.8,1.8,0.8c0.5,0,1.1,0,1.7-0.1V6.3h3.8v12.9
		c-1.7,0.5-3.6,0.8-5.7,0.8c-3.1,0-5-1.2-5.5-3.7C45.7,15.5,45.6,14.7,45.6,13.8z"/>
	<path fill="#19286E" d="M60.5,14.2V3l3.8-0.6v3.9h4.5v3.1h-4.5v4.7c0,0.8,0.1,1.4,0.4,1.9c0.3,0.5,0.8,0.7,1.7,0.7s1.7-0.1,2.4-0.4
		l0.5,2.9C68.3,19.7,67.2,20,66,20s-2.1-0.1-2.7-0.4s-1.2-0.7-1.6-1.2C60.9,17.5,60.5,16.1,60.5,14.2z"/>
	<path fill="#19286E" d="M70.5,15.5c0-1.5,0.6-2.5,1.7-3.2c1-0.6,2.3-0.9,3.9-0.9c0.9,0,1.7,0.1,2.2,0.2v-0.4c0-1.4-0.9-2.1-2.6-2.1
		c-1.4,0-2.5,0.2-3.5,0.5l-0.5-3C73.2,6.2,74.5,6,75.9,6c1.3,0,2.4,0.1,3.1,0.4c0.7,0.3,1.3,0.6,1.8,1.1c0.8,0.9,1.2,2.2,1.2,4v7.8
		c-0.5,0.1-1.3,0.3-2.3,0.4c-1,0.2-2,0.3-3.1,0.3s-2-0.1-2.7-0.2c-0.7-0.2-1.3-0.4-1.8-0.8C71,18.2,70.5,17.1,70.5,15.5z M74.2,15.4
		c0,0.6,0.2,1,0.6,1.2c0.4,0.2,1,0.3,1.7,0.3c0.8,0,1.4,0,1.8-0.1v-2.8c-0.4-0.1-1-0.1-1.5-0.1C75.1,13.9,74.2,14.4,74.2,15.4z"/>
	<path fill="#19286E" d="M85,2.5c0-0.7,0.2-1.2,0.7-1.6c0.4-0.4,1-0.6,1.6-0.6c0.6,0,1.1,0.2,1.6,0.6c0.4,0.4,0.7,0.9,0.7,1.6
		c0,0.7-0.2,1.2-0.7,1.6c-0.4,0.4-1,0.6-1.6,0.6c-0.6,0-1.1-0.2-1.6-0.6S85,3.2,85,2.5z M85.4,19.7V6.3h3.8v13.3H85.4z"/>
	<path fill="#19286E" d="M97.9,18.8l0.7-2c0.4,0.2,1,0.5,1.8,0.7c0.8,0.3,1.8,0.4,2.9,0.4c2.6,0,3.8-0.9,3.8-2.6
		c0-1.4-0.9-2.4-2.6-3.1c-0.5-0.2-1.1-0.4-1.7-0.6s-1.2-0.5-1.8-0.7c-0.6-0.3-1.1-0.6-1.5-1c-0.9-0.8-1.4-1.9-1.4-3.4
		s0.5-2.6,1.6-3.5c1-0.9,2.5-1.3,4.3-1.3c1.1,0,2,0.1,2.9,0.3s1.5,0.5,1.9,0.8l-0.8,2c-0.4-0.2-0.9-0.4-1.6-0.6
		c-0.7-0.2-1.4-0.3-2.1-0.3c-0.7,0-1.2,0.1-1.7,0.2c-0.4,0.1-0.8,0.3-1.1,0.5c-0.7,0.4-1,1-1,1.9c0,0.8,0.4,1.5,1.1,2
		c0.5,0.4,1.3,0.7,2.3,1.1c1,0.4,1.8,0.7,2.5,1s1.2,0.7,1.7,1.1c1,0.9,1.5,2.1,1.5,3.6s-0.6,2.7-1.7,3.6c-1.1,0.8-2.7,1.3-4.8,1.3
		c-1.7,0-3.3-0.3-4.6-0.9C98.3,19,98,18.9,97.9,18.8z"/>
	<path fill="#19286E" d="M111.8,13.1c0-2.1,0.6-3.7,1.7-5c1.1-1.3,2.6-1.9,4.5-1.9s3.3,0.6,4.5,1.9c1.2,1.3,1.7,3,1.7,5
		c0,1-0.2,2-0.5,2.8c-0.3,0.8-0.7,1.6-1.3,2.2c-1.1,1.3-2.6,1.9-4.5,1.9s-3.3-0.6-4.5-1.9C112.3,16.8,111.8,15.1,111.8,13.1z
		 M114.2,13.1c0,1.5,0.3,2.7,1,3.5c0.7,0.9,1.6,1.3,2.7,1.3c1.1,0,2.1-0.4,2.7-1.3c0.7-0.9,1-2,1-3.5s-0.3-2.7-1-3.5
		s-1.6-1.3-2.7-1.3c-1.1,0-2.1,0.4-2.7,1.3C114.6,10.4,114.2,11.6,114.2,13.1z"/>
	<path fill="#19286E" d="M126.7,13.1c0-2,0.6-3.7,1.7-5c1.1-1.3,2.7-2,4.6-2c1.3,0,2.4,0.2,3.5,0.6l-0.5,2c-0.8-0.4-1.7-0.6-2.7-0.6
		c-1.3,0-2.3,0.4-3,1.2c-0.7,0.8-1.1,2-1.1,3.6c0,2.3,0.8,3.8,2.3,4.4c0.5,0.2,1.3,0.3,2.2,0.3s1.8-0.2,2.6-0.6l0.3,2
		c-0.4,0.2-1,0.4-1.8,0.5c-0.8,0.1-1.4,0.1-1.7,0.1c-2.1,0-3.7-0.6-4.8-1.9C127.3,16.8,126.7,15.2,126.7,13.1z"/>
	<path fill="#19286E" d="M138.9,2.6c0-0.5,0.1-0.8,0.4-1.1S140,1,140.4,1c0.4,0,0.8,0.1,1.1,0.4c0.3,0.3,0.4,0.7,0.4,1.1
		c0,0.5-0.1,0.8-0.4,1.1s-0.7,0.4-1.1,0.4c-0.4,0-0.8-0.1-1.1-0.4S138.9,3,138.9,2.6z M139.2,19.7V6.5h2.3v13.2H139.2z"/>
	<path fill="#19286E" d="M144.7,15.7c0-1.4,0.6-2.4,1.7-3.2c1-0.6,2.3-0.9,3.9-0.9c0.7,0,1.5,0.1,2.4,0.3v-0.7c0-2.1-1-3.1-2.9-3.1
		c-1.4,0-2.5,0.2-3.4,0.5l-0.3-1.9c0.3-0.1,0.8-0.3,1.5-0.4c0.7-0.1,1.5-0.2,2.4-0.2c0.9,0,1.7,0.1,2.3,0.4c0.7,0.2,1.2,0.6,1.6,1
		c0.7,0.8,1.1,2,1.1,3.6v8.2c-2.1,0.3-3.7,0.5-4.7,0.5s-1.9-0.1-2.5-0.2s-1.2-0.4-1.6-0.7C145.2,18.3,144.7,17.2,144.7,15.7z
		 M147.1,15.7c0,0.8,0.3,1.4,0.8,1.7c0.5,0.3,1.3,0.5,2.4,0.5s1.9-0.1,2.3-0.2v-3.9c-0.4-0.2-1-0.3-1.7-0.3s-1.3,0-1.6,0.1
		s-0.8,0.2-1.1,0.3C147.5,14.3,147.1,14.9,147.1,15.7z"/>
	<path fill="#19286E" d="M158.8,16.2V0.4l2.3-0.4v15.8c0,0.8,0.1,1.3,0.4,1.6c0.2,0.2,0.8,0.4,1.5,0.5l-0.3,2
		c-1.5,0-2.5-0.3-3.1-0.9C159.1,18.4,158.8,17.5,158.8,16.2z"/>
</g>
</svg>
